<?xml version="1.0" encoding="utf-8"?>
<!-- Generator: Adobe Illustrator 22.0.0, SVG Export Plug-In . SVG Version: 6.00 Build 0)  -->
<svg version="1.1" id="Layer_1" xmlns="http://www.w3.org/2000/svg" xmlns:xlink="http://www.w3.org/1999/xlink" x="0px" y="0px"
	 viewBox="0 0 147.4 31.8" style="enable-background:new 0 0 147.4 31.8;" xml:space="preserve">
<style type="text/css">
	.st0{fill:#F04665;}
	.st1{fill:#FFFFFF;}
</style>
<g>
	<polygon class="st0" points="14.5,31.8 14.5,0.4 29.3,0.4 29.3,17.7 36.7,17.7 36.7,31.8 	"/>
	<polygon class="st0" points="31.9,31.8 31.9,0.4 54.1,0.4 54.1,14.5 53.8,14.5 53.8,17.7 54.1,17.7 54.1,31.8 	"/>
	<polygon class="st0" points="58.2,31.8 45,0.4 61.3,0.4 63.4,5.8 65.5,0.4 81.8,0.4 68.6,31.8 	"/>
	<polygon class="st0" points="72.9,31.8 72.9,0.4 95.1,0.4 95.1,14.5 94.8,14.5 94.8,17.7 95.1,17.7 95.1,31.8 	"/>
	<polygon class="st0" points="90.8,31.8 90.8,0.4 105.5,0.4 105.5,17.7 113,17.7 113,31.8 	"/>
	<path class="st0" d="M110.7,31.8l2.3-9.7c-2.7-2.2-4.6-5.6-4.6-9.9c0-8,6.5-12.3,12.9-12.3c7.6,0,13.5,5.4,13.5,12.3
		c0,5.2-1.7,7.9-4.4,11.5l-0.1,0.1l-6.7,7.9H110.7z"/>
	<polygon class="st0" points="132.6,31.8 132.6,20.9 129,23.2 129,6.6 138.7,0.4 147.4,0.4 147.4,31.8 	"/>
	<path class="st1" d="M24.4,22.6h7.4v4.3H19.4V5.3h4.9V22.6z"/>
	<path class="st1" d="M49.2,9.6h-7.4v4.3h7.1v4.3h-7.1v4.4h7.4v4.3H36.9V5.3h12.4V9.6z"/>
	<path class="st1" d="M52.4,5.3h5.6l5.5,14.2l5.5-14.2h5.6l-9.1,21.6h-3.9L52.4,5.3z"/>
	<path class="st1" d="M90.2,9.6h-7.4v4.3h7.1v4.3h-7.1v4.4h7.4v4.3H77.8V5.3h12.4V9.6z"/>
	<path class="st1" d="M100.6,22.6h7.4v4.3H95.7V5.3h4.9V22.6z"/>
	<path class="st1" d="M121.8,19.5c0,0-0.6,0.3-1.5,0.3c-3,0-6.9-2.5-6.9-7.6c0-5.1,4.1-7.3,8-7.3c4.8,0,8.6,3.2,8.6,7.3
		c0,3.8-1.2,5.6-3.4,8.6l-5.1,6.1h-6.1L121.8,19.5z M121.6,9c-1.9,0-3.3,1.4-3.3,3.3c0,1.9,1.5,3.4,3.3,3.4c1.8,0,3.3-1.4,3.3-3.4
		C124.8,10.4,123.5,9,121.6,9z"/>
	<path class="st1" d="M134,9.3l6.2-4h2.3v21.6h-4.9V11.9l-3.6,2.3V9.3z"/>
	<rect y="0.5" class="st0" width="12" height="12"/>
	<rect x="6" y="14.7" class="st0" width="6" height="6"/>
	<rect x="2.7" y="23.4" class="st0" width="3.3" height="3.3"/>
	<rect x="6" y="29.9" class="st0" width="1.6" height="1.6"/>
</g>
</svg>
