<svg xmlns="http://www.w3.org/2000/svg" xmlns:xlink="http://www.w3.org/1999/xlink" viewBox="0 0 627.11 274.63"><defs><style>.cls-1{fill:none;}.cls-2{isolation:isolate;}.cls-3{fill:#a4505f;}.cls-4{fill:#a74f5f;}.cls-5{fill:#afafaf;}.cls-6{fill:#acacac;}.cls-7{fill:#eb4765;}.cls-8{fill:#fafafa;}.cls-9{clip-path:url(#clip-path);}.cls-10{fill:#a84f5f;}.cls-11{clip-path:url(#clip-path-2);}.cls-12{clip-path:url(#clip-path-3);}.cls-13{clip-path:url(#clip-path-4);}.cls-14{clip-path:url(#clip-path-5);}.cls-15{clip-path:url(#clip-path-6);}.cls-16{clip-path:url(#clip-path-7);}.cls-17{clip-path:url(#clip-path-8);}.cls-18{clip-path:url(#clip-path-9);}.cls-19{clip-path:url(#clip-path-10);}.cls-20{clip-path:url(#clip-path-11);}.cls-21{clip-path:url(#clip-path-12);}.cls-22{clip-path:url(#clip-path-13);}.cls-23{clip-path:url(#clip-path-14);}.cls-24{fill:#b0b0b0;}.cls-25{clip-path:url(#clip-path-15);}.cls-26{fill:#a64f5f;}.cls-27{fill:#adadad;}.cls-28{fill:#aaa;}.cls-29{fill:#a9a9a9;}.cls-30{clip-path:url(#clip-path-16);}.cls-31{fill:#f4f4f4;}.cls-32{clip-path:url(#clip-path-17);}.cls-33{clip-path:url(#clip-path-18);}.cls-34{clip-path:url(#clip-path-19);}.cls-35{clip-path:url(#clip-path-20);}.cls-36{clip-path:url(#clip-path-21);}.cls-37{clip-path:url(#clip-path-22);}.cls-38{clip-path:url(#clip-path-23);}.cls-39{clip-path:url(#clip-path-24);}.cls-40{clip-path:url(#clip-path-25);}.cls-41{clip-path:url(#clip-path-26);}.cls-42{clip-path:url(#clip-path-27);}.cls-43{clip-path:url(#clip-path-28);}.cls-44{clip-path:url(#clip-path-29);}.cls-45{clip-path:url(#clip-path-30);}.cls-46{clip-path:url(#clip-path-31);}.cls-47{clip-path:url(#clip-path-32);}.cls-48{clip-path:url(#clip-path-33);}.cls-49{clip-path:url(#clip-path-34);}.cls-50{clip-path:url(#clip-path-35);}.cls-51{clip-path:url(#clip-path-36);}.cls-52{clip-path:url(#clip-path-37);}.cls-53{clip-path:url(#clip-path-38);}.cls-54{clip-path:url(#clip-path-39);}.cls-55{clip-path:url(#clip-path-40);}.cls-56{clip-path:url(#clip-path-41);}.cls-57{clip-path:url(#clip-path-42);}.cls-58{clip-path:url(#clip-path-43);}.cls-59{clip-path:url(#clip-path-44);}.cls-60{clip-path:url(#clip-path-45);}.cls-61{clip-path:url(#clip-path-46);}.cls-62{clip-path:url(#clip-path-47);}.cls-63{clip-path:url(#clip-path-48);}.cls-64{clip-path:url(#clip-path-49);}.cls-65{clip-path:url(#clip-path-50);}.cls-66{clip-path:url(#clip-path-51);}.cls-67{clip-path:url(#clip-path-52);}.cls-68{clip-path:url(#clip-path-53);}.cls-69{clip-path:url(#clip-path-54);}.cls-70{clip-path:url(#clip-path-55);}.cls-71{clip-path:url(#clip-path-56);}.cls-72{clip-path:url(#clip-path-57);}.cls-73{clip-path:url(#clip-path-58);}.cls-74{clip-path:url(#clip-path-59);}.cls-75{clip-path:url(#clip-path-60);}.cls-76{clip-path:url(#clip-path-61);}.cls-77{clip-path:url(#clip-path-62);}.cls-78{clip-path:url(#clip-path-63);}.cls-79{clip-path:url(#clip-path-64);}.cls-80{clip-path:url(#clip-path-65);}.cls-81{clip-path:url(#clip-path-66);}.cls-82{clip-path:url(#clip-path-67);}.cls-83{clip-path:url(#clip-path-68);}.cls-84{fill:#ababab;}.cls-85{clip-path:url(#clip-path-69);}.cls-86{clip-path:url(#clip-path-70);}.cls-87{clip-path:url(#clip-path-71);}.cls-88{clip-path:url(#clip-path-72);}.cls-89{clip-path:url(#clip-path-73);}.cls-90{clip-path:url(#clip-path-74);}.cls-91{clip-path:url(#clip-path-75);}.cls-92{clip-path:url(#clip-path-76);}.cls-93{clip-path:url(#clip-path-77);}.cls-94{clip-path:url(#clip-path-78);}.cls-95{clip-path:url(#clip-path-79);}.cls-96{clip-path:url(#clip-path-80);}.cls-97{clip-path:url(#clip-path-81);}.cls-98{clip-path:url(#clip-path-82);}.cls-99{clip-path:url(#clip-path-83);}.cls-100{clip-path:url(#clip-path-84);}.cls-101{clip-path:url(#clip-path-85);}.cls-102{clip-path:url(#clip-path-86);}.cls-103{clip-path:url(#clip-path-87);}.cls-104{clip-path:url(#clip-path-88);}</style><clipPath id="clip-path"><path class="cls-1" d="M479.46,82.7,536,52.82a35.25,35.25,0,0,1,20,16.29L499.42,99A35.24,35.24,0,0,0,479.46,82.7Z"/></clipPath><clipPath id="clip-path-2"><path class="cls-1" d="M479.46,82.7l-.44-.14,56.53-29.88.44.14Z"/></clipPath><clipPath id="clip-path-3"><path class="cls-1" d="M477.57,82.12,534.1,52.24c.49.14,1,.28,1.45.44L479,82.56C478.54,82.4,478.06,82.26,477.57,82.12Z"/></clipPath><clipPath id="clip-path-4"><path class="cls-1" d="M477.57,82.12q-1.56-.44-3.18-.75l56.53-29.88q1.62.32,3.18.75L495.64,72.57l-9,4.78-3.53,1.86L479.68,81C479.05,81.34,478.28,82.05,477.57,82.12Z"/></clipPath><clipPath id="clip-path-5"><path class="cls-1" d="M473.09,81.14l56.54-29.88,1.29.23L474.39,81.37Z"/></clipPath><clipPath id="clip-path-6"><path class="cls-1" d="M556.05,101.66l-56.54,29.88c2.32-5.22,3.48-10.86,3.46-18.76A29,29,0,0,0,499.42,99L556,69.11A29,29,0,0,1,559.5,82.9C559.53,90.8,558.36,96.44,556.05,101.66Z"/></clipPath><clipPath id="clip-path-7"><path class="cls-1" d="M473.09,81.14c-1.17-.18-2.36-.32-3.57-.41,18.85-10,32.43-29.88,56.54-29.88,1.2.09,2.4.22,3.57.41L488.4,73.05l-7.65,4-3,1.58-2.88,1.52A7.14,7.14,0,0,1,473.09,81.14Z"/></clipPath><clipPath id="clip-path-8"><path class="cls-1" d="M546.41,116.88l-56.53,29.88c4.22-5.74,7.44-10.29,9.63-15.22l56.54-29.88C553.86,106.59,550.64,111.14,546.41,116.88Z"/></clipPath><clipPath id="clip-path-9"><path class="cls-1" d="M533.41,92.91l-56.53,29.88c3.78-2,6.33-6.13,6.32-11.4,0-7.64-5.32-13.63-12.72-14.15a12.48,12.48,0,0,0-6.73,1.33l56.53-29.88A12.39,12.39,0,0,1,527,67.36c7.4.52,12.7,6.51,12.72,14.15C539.74,86.78,537.2,90.91,533.41,92.91Z"/></clipPath><clipPath id="clip-path-10"><path class="cls-1" d="M469.52,80.73a33.2,33.2,0,0,0-17.7,3.42l56.53-29.89a33.2,33.2,0,0,1,17.7-3.41h0L469.52,80.73Z"/></clipPath><clipPath id="clip-path-11"><path class="cls-1" d="M464.37,122.08,520.9,92.2a13.45,13.45,0,0,0,6.19,2,11.73,11.73,0,0,0,6.32-1.29l-56.53,29.88a11.75,11.75,0,0,1-6.33,1.29A13.33,13.33,0,0,1,464.37,122.08Z"/></clipPath><clipPath id="clip-path-12"><path class="cls-1" d="M457.63,109.61c0-5,2.37-9.06,6.12-11l56.53-29.88c-3.75,2-6.13,6-6.12,11Z"/></clipPath><clipPath id="clip-path-13"><path class="cls-1" d="M464.37,122.08a14.57,14.57,0,0,1-6.74-12.47l56.53-29.88A14.59,14.59,0,0,0,520.9,92.2Z"/></clipPath><clipPath id="clip-path-14"><path class="cls-1" d="M451.82,84.15l56.53-29.89c-7.7,4.08-13.29,11.85-13.25,24.13,0,20.37,15.29,31.73,26.76,32.53a11.69,11.69,0,0,0,6-.85L471.31,140a11.56,11.56,0,0,1-6,.85c-11.47-.8-26.71-12.15-26.76-32.53C438.53,96,444.11,88.22,451.82,84.15Z"/></clipPath><clipPath id="clip-path-15"><path class="cls-1" d="M442.29,66.3l56.53-29.88c-13.21,7-22.79,20.5-22.74,40.64a57,57,0,0,0,4.51,22.33,54.65,54.65,0,0,0,13.5,18.93l-56.54,29.89a54.76,54.76,0,0,1-13.49-18.94,56.92,56.92,0,0,1-4.51-22.33C419.49,86.81,429.08,73.28,442.29,66.3Z"/></clipPath><clipPath id="clip-path-16"><path class="cls-1" d="M462.54,230.19a28.24,28.24,0,0,0-1.81-10.41l56.53-29.88a28.24,28.24,0,0,1,1.81,10.41Z"/></clipPath><clipPath id="clip-path-17"><path class="cls-1" d="M440,210.37l-.78.38,56.53-29.88.78-.39a14.54,14.54,0,0,1,18.29,4.94,20.55,20.55,0,0,1,2.43,4.48l-56.53,29.88a20.55,20.55,0,0,0-2.43-4.48A14.52,14.52,0,0,0,440,210.37Z"/></clipPath><clipPath id="clip-path-18"><path class="cls-1" d="M456.24,250.9a24.27,24.27,0,0,0,4.58-8.65l56.53-29.88a24.27,24.27,0,0,1-4.58,8.65Z"/></clipPath><clipPath id="clip-path-19"><path class="cls-1" d="M442,215.21l56.53-29.88a9.23,9.23,0,0,1,5.09-1.06,8.83,8.83,0,0,1,7.24,4.62q2.58,4.32,2.6,11.36,0,9.85-4.06,16l-56.53,29.88q4.08-6.13,4.06-16,0-7-2.61-11.35a8.81,8.81,0,0,0-7.23-4.63A9.21,9.21,0,0,0,442,215.21Z"/></clipPath><clipPath id="clip-path-20"><path class="cls-1" d="M455.37,251.84c.3-.3.58-.61.87-.94L512.77,221c-.29.33-.57.64-.86.94Z"/></clipPath><clipPath id="clip-path-21"><path class="cls-1" d="M450.56,255.5a19.17,19.17,0,0,0,4.81-3.66L511.91,222a19.4,19.4,0,0,1-4.82,3.66Z"/></clipPath><clipPath id="clip-path-22"><path class="cls-1" d="M504.51,220.91,448,250.79a13.62,13.62,0,0,0,4.84-4.68l56.53-29.88A13.71,13.71,0,0,1,504.51,220.91Z"/></clipPath><clipPath id="clip-path-23"><path class="cls-1" d="M432.63,198.26l56.53-29.88a31.1,31.1,0,0,0-6.54,4.65,34.93,34.93,0,0,0-2.48,2.53,33.89,33.89,0,0,0-5.5,8.74l-56.53,29.88a33.89,33.89,0,0,1,5.5-8.74,34.89,34.89,0,0,1,2.48-2.53A31.1,31.1,0,0,1,432.63,198.26Z"/></clipPath><clipPath id="clip-path-24"><path class="cls-1" d="M473.5,182.53c-1.71.95-4,2.13-5.75,3l-18.81,9.94-25.36,13.41q25-13.2,49.93-26.39Z"/></clipPath><clipPath id="clip-path-25"><path class="cls-1" d="M423.58,208.92l49.92-26.39h0c.4.56.78,1.16,1.13,1.77l-56.53,29.88a20.51,20.51,0,0,0-1.14-1.77Z"/></clipPath><clipPath id="clip-path-26"><path class="cls-1" d="M437,220a14.08,14.08,0,0,1,4.94-4.75l56.53-29.88a14,14,0,0,0-4.94,4.75q-4.17,6.24-4.15,16.07,0,7,2.64,11.26L435.5,247.29c18.85-10,32.42-29.88,56.53-29.88a9.1,9.1,0,0,0,7.45,4.54L443,251.84,499.48,222a9.15,9.15,0,0,0,5-1L448,250.79a9.26,9.26,0,0,1-5,1.05,9.11,9.11,0,0,1-7.45-4.55c-1.75-2.8-2.62-6.55-2.64-11.26Q432.83,226.19,437,220Z"/></clipPath><clipPath id="clip-path-27"><path class="cls-1" d="M507.09,225.62,450.56,255.5l-.64.32a13.8,13.8,0,0,1-7,1.4A14.79,14.79,0,0,1,431.54,251q-4.25-5.76-4.27-15a39.16,39.16,0,0,1,1.71-12,23.9,23.9,0,0,1,4.63-8.66,20,20,0,0,1,5.62-4.52l56.53-29.88a20.09,20.09,0,0,0-5.62,4.51,24.07,24.07,0,0,0-4.63,8.66,39.2,39.2,0,0,0-1.71,12.05q0,9.25,4.27,15a14.77,14.77,0,0,0,11.36,6.25,13.78,13.78,0,0,0,7-1.4Z"/></clipPath><clipPath id="clip-path-28"><path class="cls-1" d="M398.68,207.48l-.22.1L455,177.7l.22-.11a14.55,14.55,0,0,1,18.3,4.94L417,212.41h0a14.52,14.52,0,0,0-18.29-4.93Z"/></clipPath><clipPath id="clip-path-29"><path class="cls-1" d="M421.21,227.3a26.33,26.33,0,0,0-3.1-13.12l56.53-29.88a26.33,26.33,0,0,1,3.1,13.12L421.21,227.3l56.53-29.88h0A39.22,39.22,0,0,1,476,209.48L419.5,239.36,476,209.48a25.74,25.74,0,0,1-3.9,7.82l-56.54,29.88a25.3,25.3,0,0,0,3.9-7.82A38.92,38.92,0,0,0,421.21,227.3Z"/></clipPath><clipPath id="clip-path-30"><path class="cls-1" d="M400.63,212.32l56.53-29.89a9.26,9.26,0,0,1,5.08-1.05,8.8,8.8,0,0,1,7.23,4.62,18.67,18.67,0,0,1,2.32,7,32.38,32.38,0,0,1,.29,4.32,34,34,0,0,1-1.45,10.48L414.1,237.72a34.25,34.25,0,0,0,1.45-10.48,32.38,32.38,0,0,0-.29-4.32,18.56,18.56,0,0,0-2.32-7,8.81,8.81,0,0,0-7.23-4.63A9.18,9.18,0,0,0,400.63,212.32Z"/></clipPath><clipPath id="clip-path-31"><path class="cls-1" d="M414,235.05a56.23,56.23,0,0,1,1.24-12.13l49.93-26.39,6.6-3.49a55.62,55.62,0,0,0-1.23,12.13c0,.9,0,1.79.07,2.67L414.1,237.72C414.05,236.84,414,236,414,235.05Z"/></clipPath><clipPath id="clip-path-32"><path class="cls-1" d="M398.46,207.58l-.56.28L454.43,178l.56-.28-28.26,14.94-3.71,2-7.35,3.88-14,7.39C400.73,206.38,399.44,207.08,398.46,207.58Z"/></clipPath><clipPath id="clip-path-33"><path class="cls-1" d="M508.87,240.12,452.34,270a25.57,25.57,0,0,1-9.4,1.08,28.59,28.59,0,0,1-20.55-10.66c-.38-.46-.76-.94-1.12-1.43a35.82,35.82,0,0,1-5.68-11.81l56.54-29.88a35.65,35.65,0,0,0,5.67,11.8c.36.5.74,1,1.12,1.44a28.59,28.59,0,0,0,20.55,10.66A25.76,25.76,0,0,0,508.87,240.12Z"/></clipPath><clipPath id="clip-path-34"><path class="cls-1" d="M414.91,248c.24-.26.46-.54.68-.83l56.54-29.88c-.23.29-.45.57-.69.83Z"/></clipPath><clipPath id="clip-path-35"><path class="cls-1" d="M414.91,248h0l56.53-29.88h0L414.91,248Z"/></clipPath><clipPath id="clip-path-36"><path class="cls-1" d="M409.23,252.61a20,20,0,0,0,5.68-4.6l56.53-29.88a20,20,0,0,1-5.68,4.6Z"/></clipPath><clipPath id="clip-path-37"><path class="cls-1" d="M463.18,218,406.64,247.9a13.56,13.56,0,0,0,4.85-4.68,22,22,0,0,0,2.61-5.5l56.53-29.88a22,22,0,0,1-2.61,5.5A13.71,13.71,0,0,1,463.18,218Z"/></clipPath><clipPath id="clip-path-38"><path class="cls-1" d="M391.3,195.37l56.53-29.88a30.78,30.78,0,0,0-6,4.18,32.67,32.67,0,0,0-3,3,33.2,33.2,0,0,0-5.1,7.88l-56.53,29.88a33.2,33.2,0,0,1,5.1-7.88,32.67,32.67,0,0,1,3-3A31.22,31.22,0,0,1,391.3,195.37Z"/></clipPath><clipPath id="clip-path-39"><path class="cls-1" d="M395.69,217.07a14,14,0,0,1,4.94-4.75l56.53-29.89a14.12,14.12,0,0,0-4.94,4.76l-56.53,29.88,56.53-29.88q-4.19,6.24-4.16,16.07,0,7.05,2.64,11.26L394.17,244.4l56.53-29.88a9.1,9.1,0,0,0,7.45,4.54l-56.53,29.88,56.53-29.88a9.17,9.17,0,0,0,5-1L406.64,247.9a9.21,9.21,0,0,1-5,1,9.11,9.11,0,0,1-7.45-4.55q-2.62-4.2-2.64-11.26Q391.5,223.3,395.69,217.07Z"/></clipPath><clipPath id="clip-path-40"><path class="cls-1" d="M379.16,217.64a14.46,14.46,0,0,0-2-7.21q25-13.2,49.93-26.39l6.6-3.49a14.46,14.46,0,0,1,2,7.21Z"/></clipPath><clipPath id="clip-path-41"><path class="cls-1" d="M465.76,222.73l-56.53,29.88c-.21.11-.42.22-.64.32a13.76,13.76,0,0,1-7,1.4,14.78,14.78,0,0,1-11.37-6.24q-4.24-5.76-4.27-15A39.11,39.11,0,0,1,387.65,221a23.9,23.9,0,0,1,4.63-8.66,20,20,0,0,1,5.62-4.52L454.43,178a20.09,20.09,0,0,0-5.62,4.51,24.22,24.22,0,0,0-4.63,8.66,39.2,39.2,0,0,0-1.71,12q0,9.24,4.27,15a14.78,14.78,0,0,0,11.37,6.25,13.76,13.76,0,0,0,7-1.4Z"/></clipPath><clipPath id="clip-path-42"><path class="cls-1" d="M374.87,207.58c18.84-10,32.42-29.89,56.53-29.89a13.81,13.81,0,0,1,2.31,2.86l-56.53,29.88A13.82,13.82,0,0,0,374.87,207.58Z"/></clipPath><clipPath id="clip-path-43"><path class="cls-1" d="M374.87,207.58a16,16,0,0,0-10.31-4.39l56.53-29.88a16.07,16.07,0,0,1,10.31,4.38l-56.53,29.89Z"/></clipPath><clipPath id="clip-path-44"><path class="cls-1" d="M364.56,203.19h0l56.53-29.88h0l-28.26,14.94-3.71,2-3.69,1.95L378.16,196l-7,3.7C369.18,200.75,366.75,202.73,364.56,203.19Z"/></clipPath><clipPath id="clip-path-45"><path class="cls-1" d="M429.34,198.29l-56.53,29.88a53.07,53.07,0,0,1,1.64-10.28L431,188A52.32,52.32,0,0,0,429.34,198.29Z"/></clipPath><clipPath id="clip-path-46"><path class="cls-1" d="M359,209.25l56.53-29.88a9.86,9.86,0,0,1,5.38-1,9.31,9.31,0,0,1,6.75,3,10.89,10.89,0,0,1,2.55,6.66l-56.53,29.88a10.86,10.86,0,0,0-2.56-6.66,9.3,9.3,0,0,0-6.74-3A9.84,9.84,0,0,0,359,209.25Z"/></clipPath><clipPath id="clip-path-47"><path class="cls-1" d="M364.56,203.19A15.67,15.67,0,0,0,356,204.7l56.53-29.88a15.69,15.69,0,0,1,8.53-1.51l-28.27,14.94-7.39,3.91L378.16,196l-7,3.7C369.18,200.75,366.75,202.73,364.56,203.19Z"/></clipPath><clipPath id="clip-path-48"><path class="cls-1" d="M372.81,228.17a37.53,37.53,0,0,0-7-4.2l56.53-29.88a37.19,37.19,0,0,1,7,4.2Z"/></clipPath><clipPath id="clip-path-49"><path class="cls-1" d="M374.87,230.11a15,15,0,0,0-2.06-1.94l49.93-26.39,6.6-3.49a15,15,0,0,1,2.06,1.94,11.05,11.05,0,0,1,2.63,7.44,13.59,13.59,0,0,1-2.7,8.51L374.8,246.06a13.59,13.59,0,0,0,2.7-8.51A11.05,11.05,0,0,0,374.87,230.11Z"/></clipPath><clipPath id="clip-path-50"><path class="cls-1" d="M380,256.1a35.47,35.47,0,0,1-5.15-10l49.93-26.39,6.6-3.49a35.28,35.28,0,0,0,5.15,10,33.6,33.6,0,0,0,2.16,2.65,28.5,28.5,0,0,0,19.51,9.45,26,26,0,0,0,13.14-2.55c.36-.17.71-.34,1.06-.53l-56.53,29.88c-.35.19-.71.36-1.06.53a26,26,0,0,1-13.14,2.55,28.5,28.5,0,0,1-19.51-9.45A33,33,0,0,1,380,256.1Z"/></clipPath><clipPath id="clip-path-51"><path class="cls-1" d="M357.81,210a6.38,6.38,0,0,1,1.2-.79l56.53-29.88a7.26,7.26,0,0,0-1.2.78L357.82,210l56.52-29.88a6.26,6.26,0,0,0-2.5,5.08l-56.53,29.88h0A6.23,6.23,0,0,1,357.81,210Z"/></clipPath><clipPath id="clip-path-52"><path class="cls-1" d="M355.31,215.11c18.85-10,32.43-29.88,56.53-29.88a5.14,5.14,0,0,0,1.86,4l-56.53,29.88,56.53-29.88q1.85,1.62,8.66,4.9L365.83,224q-6.81-3.27-8.66-4.9A5.12,5.12,0,0,1,355.31,215.11Z"/></clipPath><clipPath id="clip-path-53"><path class="cls-1" d="M373.07,248a13.88,13.88,0,0,0,1.73-1.89l56.53-29.88a15.15,15.15,0,0,1-1.72,1.89,13.17,13.17,0,0,1-2.79,2l-56.53,29.88A13.11,13.11,0,0,0,373.07,248Z"/></clipPath><clipPath id="clip-path-54"><path class="cls-1" d="M423.76,215.33l-56.53,29.88A10.22,10.22,0,0,0,369,244a8.27,8.27,0,0,0,3-6.64,6.54,6.54,0,0,0-1.82-4.48c-1.21-1.35-3.65-2.86-7.29-4.54-4.89-2.25-8.29-4.31-10.23-6.2a9.79,9.79,0,0,1-2.91-7.29,11,11,0,0,1,4-8.63A11.31,11.31,0,0,1,356,204.7l56.53-29.88a11.31,11.31,0,0,0-2.23,1.53,11,11,0,0,0-4,8.63,9.85,9.85,0,0,0,2.91,7.29q2.91,2.83,10.23,6.2,5.48,2.52,7.29,4.53a6.59,6.59,0,0,1,1.82,4.49,8.27,8.27,0,0,1-3,6.64A10.22,10.22,0,0,1,423.76,215.33Z"/></clipPath><clipPath id="clip-path-55"><path class="cls-1" d="M353.61,242.4q-2.49-3.51-2.64-9.9l56.54-29.88q.14,6.39,2.63,9.9t8.08,3.88a10.08,10.08,0,0,0,5.54-1.07l-56.53,29.88a10.17,10.17,0,0,1-5.54,1.08Q356.1,245.9,353.61,242.4Z"/></clipPath><clipPath id="clip-path-56"><path class="cls-1" d="M349.38,192.24l56.54-29.89a23.63,23.63,0,0,0-4.47,3.07,23.94,23.94,0,0,0-8.39,18.63,27.4,27.4,0,0,0,.55,5.31l-56.53,29.88a27.4,27.4,0,0,1-.55-5.31,23.91,23.91,0,0,1,8.39-18.63A23.38,23.38,0,0,1,349.38,192.24Z"/></clipPath><clipPath id="clip-path-57"><path class="cls-1" d="M426.82,220l-56.53,29.88a16.18,16.18,0,0,1-8.84,1.61q-7.56-.53-11.77-5.39t-4.3-13.37l56.53-29.88q.09,8.54,4.3,13.37T418,221.65A16.17,16.17,0,0,0,426.82,220Z"/></clipPath><clipPath id="clip-path-58"><path class="cls-1" d="M433.46,232.51l-56.53,29.88a28.43,28.43,0,0,1-15.44,3,30.26,30.26,0,0,1-21.33-10.29c-5.23-6-7.93-13.82-8-23.14l56.53-29.88c.09,9.32,2.79,17.1,8,23.14A30.22,30.22,0,0,0,418,235.51,28.43,28.43,0,0,0,433.46,232.51Z"/></clipPath><clipPath id="clip-path-59"><path class="cls-1" d="M296.09,202.83A13.93,13.93,0,0,0,286,197.7l56.53-29.88a14,14,0,0,1,10.12,5.12L296.1,202.82l56.52-29.88a18,18,0,0,1,4,11.76l-56.53,29.88A18,18,0,0,0,296.09,202.83Z"/></clipPath><clipPath id="clip-path-60"><path class="cls-1" d="M280.71,203.94l56.53-29.88a9,9,0,0,1,4.9-1q8.33.59,9,11.8L294.6,214.72q-.68-11.22-9-11.8A9,9,0,0,0,280.71,203.94Z"/></clipPath><clipPath id="clip-path-61"><path class="cls-1" d="M271.47,186.84,328,157a26.4,26.4,0,0,1,3.72-1.62L275.2,185.22A27,27,0,0,0,271.47,186.84Z"/></clipPath><clipPath id="clip-path-62"><path class="cls-1" d="M293.53,241.52q4.75-4.92,5.94-13.48L356,198.15q-1.19,8.57-5.94,13.49a14.7,14.7,0,0,1-3.76,2.86l-56.53,29.89A15.16,15.16,0,0,0,293.53,241.52Z"/></clipPath><clipPath id="clip-path-63"><path class="cls-1" d="M343.68,209.61,287.15,239.5a10,10,0,0,0,2.62-2.06,17,17,0,0,0,4-9.07l56.53-29.88a17,17,0,0,1-4,9.06A9.42,9.42,0,0,1,343.68,209.61Z"/></clipPath><clipPath id="clip-path-64"><path class="cls-1" d="M271.47,186.84,328,157a31.58,31.58,0,0,0-9.86,8.37,35.85,35.85,0,0,0-2.21,3.08l-56.53,29.88a35.85,35.85,0,0,1,2.21-3.08A31.56,31.56,0,0,1,271.47,186.84Z"/></clipPath><clipPath id="clip-path-65"><path class="cls-1" d="M343.68,209.61,287.15,239.5a9.63,9.63,0,0,1-5.26,1,9.22,9.22,0,0,1-7.35-4.64L331.07,206a9.22,9.22,0,0,0,7.35,4.64A9.52,9.52,0,0,0,343.68,209.61Z"/></clipPath><clipPath id="clip-path-66"><path class="cls-1" d="M275.77,208.82a13.69,13.69,0,0,1,4.93-4.88l56.54-29.88-.46.25-56.52,29.88h0l56.53-29.88a14.23,14.23,0,0,0-4.48,4.63h0l-56.52,29.87,56.52-29.87a24,24,0,0,0-3,7.1l-56.53,29.88h0L329.27,186a34.44,34.44,0,0,0-1,8.71h0l-56.52,29.88,56.52-29.88A26.24,26.24,0,0,0,329,201L272.45,230.9,329,201a16.5,16.5,0,0,0,2.09,5l-56.53,29.88q-2.79-4.32-2.8-11.24Q271.71,215.12,275.77,208.82Z"/></clipPath><clipPath id="clip-path-67"><path class="cls-1" d="M346.3,214.5l-56.53,29.89a15.47,15.47,0,0,1-19.39-4.79q-4.26-5.85-4.29-15,0-12.64,5.91-20.07a19.86,19.86,0,0,1,6.08-5.24l56.53-29.88a19.68,19.68,0,0,0-6.07,5.23q-6,7.44-5.92,20.08,0,9.11,4.29,15a15.44,15.44,0,0,0,19.39,4.78Z"/></clipPath><clipPath id="clip-path-68"><path class="cls-1" d="M352.91,227l-56.53,29.88a26.92,26.92,0,0,1-14.62,2.93A28.16,28.16,0,0,1,264,252.06a32.46,32.46,0,0,1-3.95-4.5,37,37,0,0,1-6.41-14.93l56.53-29.89a36.9,36.9,0,0,0,6.41,14.93,32,32,0,0,0,3.95,4.51,28.23,28.23,0,0,0,17.73,7.75A26.9,26.9,0,0,0,352.91,227Z"/></clipPath><clipPath id="clip-path-69"><path class="cls-1" d="M112.55,187.47q-.39.18-.78.39L168.31,158l.77-.38a14.52,14.52,0,0,1,18.29,4.93,20.28,20.28,0,0,1,2,3.39l-56.53,29.88a20.68,20.68,0,0,0-2-3.39,14.52,14.52,0,0,0-18.29-4.93Z"/></clipPath><clipPath id="clip-path-70"><path class="cls-1" d="M135.08,207.29a27.49,27.49,0,0,0-2.27-11.5l56.53-29.88a27.49,27.49,0,0,1,2.27,11.5l-56.53,29.88,56.53-29.88h0a39.22,39.22,0,0,1-1.71,12.06l-56.53,29.88,56.53-29.88a24.43,24.43,0,0,1-4.59,8.65,22.13,22.13,0,0,1-1.64,1.7L127.14,229.7a22.13,22.13,0,0,0,1.64-1.7,24.43,24.43,0,0,0,4.59-8.65,39.22,39.22,0,0,0,1.71-12.06Z"/></clipPath><clipPath id="clip-path-71"><path class="cls-1" d="M114.5,192.31,171,162.43a9.18,9.18,0,0,1,5.08-1.06,8.84,8.84,0,0,1,7.24,4.63q2.58,4.31,2.6,11.35,0,9.85-4.06,16l-56.53,29.88q4.08-6.14,4.06-16c0-4.69-.89-8.48-2.61-11.35a8.81,8.81,0,0,0-7.23-4.63A9.26,9.26,0,0,0,114.5,192.31Z"/></clipPath><clipPath id="clip-path-72"><path class="cls-1" d="M123.1,232.6a18.7,18.7,0,0,0,4-2.9l56.53-29.88a18.8,18.8,0,0,1-4,2.9Z"/></clipPath><clipPath id="clip-path-73"><path class="cls-1" d="M177.05,198,120.52,227.9a13.66,13.66,0,0,0,4.84-4.69l56.53-29.88A13.66,13.66,0,0,1,177.05,198Z"/></clipPath><clipPath id="clip-path-74"><path class="cls-1" d="M99.49,179.24a31.37,31.37,0,0,1,5.71-3.9l56.53-29.88a31,31,0,0,0-5.7,3.9,35.92,35.92,0,0,0-3.35,3.3,33.19,33.19,0,0,0-4.85,7.36L91.3,189.9a32.5,32.5,0,0,1,4.85-7.36A37.09,37.09,0,0,1,99.49,179.24Z"/></clipPath><clipPath id="clip-path-75"><path class="cls-1" d="M109.56,197.06a13.92,13.92,0,0,1,4.94-4.75L171,162.43a14,14,0,0,0-4.94,4.75h0q-4.18,6.24-4.15,16.07l-56.53,29.88c18.84-10,32.42-29.88,56.53-29.88q0,7.06,2.63,11.26a9.11,9.11,0,0,0,7.45,4.55L115.5,228.94c18.84-10,32.42-29.88,56.53-29.88a9.14,9.14,0,0,0,5-1.05L120.52,227.9a9.24,9.24,0,0,1-5,1,9.11,9.11,0,0,1-7.45-4.55q-2.61-4.2-2.64-11.26,0-9.84,4.16-16.07Z"/></clipPath><clipPath id="clip-path-76"><path class="cls-1" d="M179.63,202.72,123.1,232.6c-.21.11-.42.22-.64.32a13.91,13.91,0,0,1-7,1.41,14.83,14.83,0,0,1-11.36-6.25q-4.24-5.76-4.27-15A39.2,39.2,0,0,1,101.52,201a24,24,0,0,1,4.62-8.66,20.09,20.09,0,0,1,5.63-4.51L168.3,158a20.31,20.31,0,0,0-5.63,4.52,23.88,23.88,0,0,0-4.61,8.66,38.89,38.89,0,0,0-1.72,12q0,9.24,4.27,15A14.79,14.79,0,0,0,172,204.44a13.78,13.78,0,0,0,7-1.4Z"/></clipPath><clipPath id="clip-path-77"><path class="cls-1" d="M150.77,170.7,94.24,200.58A18.42,18.42,0,0,0,91.3,189.9L147.83,160A18.42,18.42,0,0,1,150.77,170.7Z"/></clipPath><clipPath id="clip-path-78"><path class="cls-1" d="M90.27,188.54a14.23,14.23,0,0,0-10.37-5.25c18.84-10,32.42-29.88,56.53-29.88a14.21,14.21,0,0,1,10.37,5.25L90.27,188.54l56.53-29.88a16.75,16.75,0,0,1,1,1.36L91.3,189.9A16.75,16.75,0,0,0,90.27,188.54Z"/></clipPath><clipPath id="clip-path-79"><path class="cls-1" d="M75,189.46l56.53-29.89a8.67,8.67,0,0,1,4.75-1,8.11,8.11,0,0,1,6.72,3.73,14.84,14.84,0,0,1,2,5.36,21.58,21.58,0,0,1,.3,3.11L88.72,200.66a20.35,20.35,0,0,0-.31-3.11,14.48,14.48,0,0,0-2-5.36,8.08,8.08,0,0,0-6.71-3.73A8.67,8.67,0,0,0,75,189.46Z"/></clipPath><clipPath id="clip-path-80"><path class="cls-1" d="M145.11,195.9,88.58,225.79a22.92,22.92,0,0,0,3.74-9.44l56.53-29.88A22.82,22.82,0,0,1,145.11,195.9Z"/></clipPath><clipPath id="clip-path-81"><path class="cls-1" d="M137,195.44,80.47,225.32A8.34,8.34,0,0,0,83,223.24a18.8,18.8,0,0,0,3.68-8q.09-.41.18-.84l56.53-29.88c-.06.28-.12.57-.18.84a18.91,18.91,0,0,1-3.67,8A8.49,8.49,0,0,1,137,195.44Z"/></clipPath><clipPath id="clip-path-82"><path class="cls-1" d="M143.2,185.39,86.67,215.27c-.07-1-.1-2.06-.1-3.12a54.07,54.07,0,0,1,1.84-14.6L145,167.67a53.62,53.62,0,0,0-1.85,14.6C143.1,183.33,143.13,184.37,143.2,185.39Z"/></clipPath><clipPath id="clip-path-83"><path class="cls-1" d="M93.82,236.09a35.51,35.51,0,0,1-5.24-10.3l49.93-26.4,6.6-3.49a35.44,35.44,0,0,0,5.24,10.31,32.2,32.2,0,0,0,2.06,2.52A28.49,28.49,0,0,0,172,218.3a25.62,25.62,0,0,0,8.72-.88L124.2,247.3a25.39,25.39,0,0,1-8.72.88,28.52,28.52,0,0,1-19.6-9.56,32,32,0,0,1-2.06-2.53Z"/></clipPath><clipPath id="clip-path-84"><path class="cls-1" d="M86.69,228a15.73,15.73,0,0,0,1.89-2.17l56.53-29.89a15.25,15.25,0,0,1-1.89,2.18,13,13,0,0,1-2.9,2.1L83.78,230.06a12.8,12.8,0,0,0,2.91-2.1Z"/></clipPath><clipPath id="clip-path-85"><path class="cls-1" d="M55.52,181.13a31.23,31.23,0,0,1,10.07-8.76l56.54-29.88a31.24,31.24,0,0,0-10.08,8.76,37.68,37.68,0,0,0-3,4.56L52.53,185.69A37.68,37.68,0,0,1,55.52,181.13Z"/></clipPath><clipPath id="clip-path-86"><path class="cls-1" d="M69.91,194.53A14,14,0,0,1,75,189.46l56.53-29.89a14.09,14.09,0,0,0-5.06,5.08L69.91,194.53l56.53-29.88h0q-4.08,6.47-4.06,15.7L65.86,210.23l56.52-29.88a20.53,20.53,0,0,0,2.87,11.22L68.72,221.45l56.53-29.88q2.84,4.41,7.35,4.73L76.07,226.18c18.85-10,32.42-29.88,56.53-29.88a8,8,0,0,0,4.4-.86L80.47,225.32a8,8,0,0,1-4.4.86q-4.51-.31-7.35-4.73a20.43,20.43,0,0,1-2.87-11.21Q65.84,201,69.91,194.53Z"/></clipPath><clipPath id="clip-path-87"><path class="cls-1" d="M140.32,200.18,83.78,230.06a14.5,14.5,0,0,1-8,1.5,14.76,14.76,0,0,1-11.2-6.31q-4.35-5.82-4.37-14.6,0-12.78,5.8-20.35a19.16,19.16,0,0,1,6.14-5.42L128.73,155a19.15,19.15,0,0,0-6.14,5.42q-5.84,7.56-5.8,20.35,0,8.78,4.37,14.6a14.76,14.76,0,0,0,11.2,6.31A14.52,14.52,0,0,0,140.32,200.18Z"/></clipPath><clipPath id="clip-path-88"><path class="cls-1" d="M47,209.72c0-9.34,1.82-17.4,5.51-24l56.53-29.88c-3.69,6.63-5.54,14.69-5.51,24,0,9.12,2.51,17.06,7.38,23.59,5.45,7.32,12.87,11.5,21.47,12.1a26.68,26.68,0,0,0,14.54-2.87L90.41,242.54a26.68,26.68,0,0,1-14.54,2.87c-8.6-.6-16-4.78-21.47-12.1C49.53,226.78,47,218.84,47,209.72Z"/></clipPath></defs><title>Asset 2</title><g id="Layer_2" data-name="Layer 2"><g id="Layer_5" data-name="Layer 5"><g class="cls-2"><polygon class="cls-3" points="607.79 58.16 551.26 88.04 542.23 87.41 598.77 57.53 607.79 58.16"/><polygon class="cls-4" points="567.51 52.8 510.98 82.68 536.57 67.12 593.1 37.24 567.51 52.8"/><polygon class="cls-5" points="574.98 71.98 518.45 101.87 542.23 87.41 598.77 57.53 574.98 71.98"/><polygon class="cls-4" points="608.03 145.7 551.5 175.58 551.26 88.04 607.79 58.16 608.03 145.7"/><polygon class="cls-5" points="588.97 144.37 532.44 174.25 532.27 113.23 588.8 83.35 588.97 144.37"/><polygon class="cls-4" points="575.03 91.72 518.5 121.6 532.27 113.23 588.8 83.35 575.03 91.72"/><polygon class="cls-5" points="575.03 91.72 518.5 121.6 518.45 101.87 574.98 71.98 575.03 91.72"/><polygon class="cls-4" points="555.93 59.83 499.4 89.72 510.98 82.68 567.51 52.8 555.93 59.83"/><polygon class="cls-4" points="555.96 69.11 499.43 98.99 499.4 89.72 555.93 59.83 555.96 69.11"/><polygon class="cls-6" points="608.03 145.7 551.5 175.58 532.44 174.25 588.97 144.37 608.03 145.7"/><polygon class="cls-4" points="570.01 162.93 513.48 192.81 513.35 148.47 569.88 118.59 570.01 162.93"/><polygon class="cls-4" points="556.12 126.96 499.58 156.84 512.59 148.93 569.12 119.05 556.12 126.96"/><path class="cls-7" d="M593.1,37.24l33.65,2.35.36,127.33-57.1-4-.13-44.34-.76.46-13,7.91-.07-25.3c2.31-5.22,3.48-10.86,3.45-18.76A29,29,0,0,0,556,69.11l0-9.28,11.58-7ZM608,145.7l-.24-87.54-9-.63L575,72l0,19.74,13.77-8.37.17,61L608,145.7"/><polygon class="cls-8" points="607.79 58.16 608.03 145.7 588.97 144.37 588.8 83.35 575.03 91.72 574.98 71.98 598.77 57.53 607.79 58.16"/><g class="cls-2"><g class="cls-9"><g class="cls-2"><path class="cls-10" d="M556,69.11,499.42,99C494,88.9,482.78,81.66,469.52,80.73a33.19,33.19,0,0,0-17.7,3.42l56.53-29.89a33.2,33.2,0,0,1,17.7-3.41c13.26.93,24.46,8.17,29.91,18.26"/></g></g></g><g class="cls-2"><g class="cls-11"><g class="cls-2"><path class="cls-10" d="M556,69.11,499.42,99C494,88.9,482.78,81.66,469.52,80.73a33.19,33.19,0,0,0-17.7,3.42l56.53-29.89a33.2,33.2,0,0,1,17.7-3.41c13.26.93,24.46,8.17,29.91,18.26"/></g></g></g><g class="cls-2"><g class="cls-12"><g class="cls-2"><path class="cls-10" d="M556,69.11,499.42,99C494,88.9,482.78,81.66,469.52,80.73a33.19,33.19,0,0,0-17.7,3.42l56.53-29.89a33.2,33.2,0,0,1,17.7-3.41c13.26.93,24.46,8.17,29.91,18.26"/></g></g></g><g class="cls-2"><g class="cls-13"><g class="cls-2"><path class="cls-10" d="M556,69.11,499.42,99C494,88.9,482.78,81.66,469.52,80.73a33.19,33.19,0,0,0-17.7,3.42l56.53-29.89a33.2,33.2,0,0,1,17.7-3.41c13.26.93,24.46,8.17,29.91,18.26"/></g></g></g><g class="cls-2"><g class="cls-14"><g class="cls-2"><path class="cls-10" d="M556,69.11,499.42,99C494,88.9,482.78,81.66,469.52,80.73a33.19,33.19,0,0,0-17.7,3.42l56.53-29.89a33.2,33.2,0,0,1,17.7-3.41c13.26.93,24.46,8.17,29.91,18.26"/></g></g></g><g class="cls-2"><g class="cls-15"><g class="cls-2"><path class="cls-10" d="M556.05,101.66l-56.54,29.88c2.32-5.22,3.48-10.86,3.46-18.76A29,29,0,0,0,499.42,99L556,69.11A29,29,0,0,1,559.5,82.9c0,7.9-1.14,13.54-3.45,18.76"/></g></g></g><g class="cls-2"><g class="cls-16"><g class="cls-2"><path class="cls-10" d="M556,69.11,499.42,99C494,88.9,482.78,81.66,469.52,80.73a33.19,33.19,0,0,0-17.7,3.42l56.53-29.89a33.2,33.2,0,0,1,17.7-3.41c13.26.93,24.46,8.17,29.91,18.26"/></g></g></g><polygon class="cls-4" points="556.12 126.96 499.58 156.84 499.51 131.54 556.05 101.66 556.12 126.96"/><g class="cls-2"><g class="cls-17"><g class="cls-2"><path class="cls-10" d="M546.41,116.88l-56.53,29.88c4.22-5.74,7.44-10.29,9.63-15.22l56.54-29.88c-2.19,4.93-5.41,9.48-9.64,15.22"/></g></g></g><g class="cls-2"><g class="cls-18"><g class="cls-2"><path class="cls-5" d="M533.41,92.91l-56.53,29.88c3.78-2,6.33-6.13,6.32-11.4,0-7.64-5.32-13.63-12.72-14.15a12.48,12.48,0,0,0-6.73,1.33l56.53-29.88A12.39,12.39,0,0,1,527,67.36c7.4.52,12.7,6.51,12.72,14.15,0,5.27-2.53,9.4-6.32,11.4"/></g></g></g><polygon class="cls-3" points="627.11 166.92 570.57 196.8 513.48 192.81 570.01 162.93 627.11 166.92"/><g class="cls-2"><g class="cls-19"><g class="cls-2"><path class="cls-10" d="M556,69.11,499.42,99C494,88.9,482.78,81.66,469.52,80.73a33.19,33.19,0,0,0-17.7,3.42l56.53-29.89a33.2,33.2,0,0,1,17.7-3.41c13.26.93,24.46,8.17,29.91,18.26"/></g></g></g><g class="cls-2"><g class="cls-20"><g class="cls-2"><path class="cls-10" d="M533.41,92.91l-56.53,29.88a11.75,11.75,0,0,1-6.33,1.29c-7.2-.5-12.9-6.63-12.92-14.47l56.53-29.88c0,7.84,5.72,14,12.93,14.47a11.73,11.73,0,0,0,6.32-1.29"/></g></g></g><g class="cls-2"><g class="cls-21"><g class="cls-2"><path class="cls-10" d="M514.16,79.73l-56.53,29.88c0-5,2.37-9.06,6.12-11l56.53-29.88c-3.75,2-6.13,6-6.12,11"/></g></g></g><g class="cls-2"><g class="cls-22"><g class="cls-2"><path class="cls-10" d="M533.41,92.91l-56.53,29.88a11.75,11.75,0,0,1-6.33,1.29c-7.2-.5-12.9-6.63-12.92-14.47l56.53-29.88c0,7.84,5.72,14,12.93,14.47a11.73,11.73,0,0,0,6.32-1.29"/></g></g></g><polygon class="cls-10" points="526.81 140.02 470.27 169.9 489.88 146.76 546.41 116.88 526.81 140.02"/><g class="cls-2"><g class="cls-23"><g class="cls-2"><path class="cls-5" d="M527.84,110.07,471.31,140a11.56,11.56,0,0,1-6,.85c-11.47-.8-26.71-12.15-26.76-32.53,0-12.28,5.54-20,13.25-24.12l56.53-29.89c-7.7,4.08-13.29,11.85-13.25,24.13,0,20.37,15.29,31.73,26.76,32.53a11.69,11.69,0,0,0,6-.85"/></g></g></g><polygon class="cls-24" points="503.28 138.37 446.75 168.25 471.31 139.95 527.84 110.07 503.28 138.37"/><polygon class="cls-6" points="526.81 140.02 470.27 169.9 446.75 168.25 503.28 138.37 526.81 140.02"/><g class="cls-2"><g class="cls-25"><g class="cls-2"><path class="cls-10" d="M494.09,118.32l-56.54,29.89a54.76,54.76,0,0,1-13.49-18.94,56.92,56.92,0,0,1-4.51-22.33c-.06-20.13,9.53-33.66,22.74-40.64l56.53-29.88c-13.21,7-22.79,20.5-22.74,40.64a57,57,0,0,0,4.51,22.33,54.65,54.65,0,0,0,13.5,18.93"/></g></g></g><path class="cls-7" d="M556.12,127l13-7.91c-2.16,3.51-4.63,7-7.35,10.68l-.36.49-25.69,30.31L494,157.61l-8.78-.61,8.67-37.66.24-1a54.65,54.65,0,0,1-13.5-18.93,57,57,0,0,1-4.51-22.33C476,44.49,501.13,29.22,526,31a57.62,57.62,0,0,1,41.51,21.83l-11.58,7,0,9.28C550.51,59,539.31,51.78,526.05,50.85c-15.11-1.05-31,6.84-30.95,27.54,0,20.37,15.29,31.73,26.76,32.53a11.69,11.69,0,0,0,6-.85l-24.56,28.3L526.81,140l19.6-23.14c4.23-5.74,7.45-10.29,9.64-15.22Z"/><path class="cls-8" d="M556,69.11A29,29,0,0,1,559.5,82.9c0,7.9-1.14,13.54-3.45,18.76-2.19,4.93-5.41,9.48-9.64,15.22L526.81,140l-23.53-1.65,24.56-28.3a11.69,11.69,0,0,1-6,.85c-11.47-.8-26.71-12.16-26.76-32.53-.06-20.7,15.84-28.59,30.95-27.54C539.31,51.78,550.51,59,556,69.11ZM527.09,94.2c7,.49,12.66-4.84,12.64-12.69,0-7.64-5.32-13.63-12.72-14.15s-12.87,4.72-12.85,12.37c0,7.84,5.72,14,12.93,14.47"/><path class="cls-7" d="M514.16,79.73c0-7.65,5.44-12.89,12.85-12.37s12.7,6.51,12.72,14.15c0,7.85-5.65,13.18-12.64,12.69C519.88,93.7,514.19,87.57,514.16,79.73Z"/><polygon class="cls-4" points="493.85 119.34 437.32 149.22 437.56 148.21 494.09 118.32 493.85 119.34"/><polygon class="cls-3" points="535.72 160.53 479.19 190.41 437.43 187.49 493.96 157.61 535.72 160.53"/><polygon class="cls-4" points="485.19 157 428.65 186.88 437.32 149.22 493.85 119.34 485.19 157"/><polygon class="cls-4" points="474.89 136.39 418.36 166.27 418.31 148.76 474.84 118.88 474.89 136.39"/><polygon class="cls-3" points="445.84 46.83 389.31 76.71 370.25 75.38 426.78 45.5 445.84 46.83"/><polygon class="cls-3" points="493.96 157.61 437.43 187.49 428.65 186.88 485.19 157 493.96 157.61"/><polygon class="cls-4" points="446.04 116.86 389.5 146.74 389.31 76.71 445.84 46.83 446.04 116.86"/><polygon class="cls-3" points="474.84 118.88 418.31 148.76 389.5 146.74 446.04 116.86 474.84 118.88"/><polygon class="cls-6" points="474.89 136.39 418.36 166.27 370.49 162.92 427.02 133.04 474.89 136.39"/><polygon class="cls-5" points="427.02 133.04 370.49 162.92 370.25 75.38 426.78 45.5 427.02 133.04"/><path class="cls-7" d="M480.59,99.39a54.41,54.41,0,0,0,13.26,18.72v1.23L485.18,157,425,152.79l-16.94-1.18-.35-127.34,57.09,4,.2,70Zm-5.7,37-.05-17.51-28.8-2-.2-70L426.78,45.5,427,133l47.87,3.35"/><polygon class="cls-8" points="445.84 46.83 446.04 116.86 474.84 118.88 474.89 136.39 427.02 133.04 426.78 45.5 445.84 46.83"/><polygon class="cls-3" points="485.19 157 428.65 186.88 368.47 182.67 425 152.79 485.19 157"/><polygon class="cls-3" points="425 152.79 368.47 182.67 351.52 181.49 408.06 151.61 425 152.79"/><polygon class="cls-4" points="408.06 151.61 351.52 181.49 351.17 54.16 407.71 24.27 408.06 151.61"/></g><g class="cls-2"><polygon class="cls-4" points="405.73 61.53 349.2 91.41 349.15 73.91 405.69 44.02 405.73 61.53"/><polygon class="cls-4" points="404.62 96.36 348.08 126.24 348.04 108.73 404.57 78.85 404.62 96.36"/><polygon class="cls-6" points="405.73 61.53 349.2 91.41 320.4 89.39 376.93 59.51 405.73 61.53"/><polygon class="cls-4" points="405.93 131.56 349.39 161.45 349.35 143.94 405.88 114.05 405.93 131.56"/><polygon class="cls-3" points="404.57 78.85 348.04 108.73 320.45 106.8 376.98 76.92 404.57 78.85"/><polygon class="cls-4" points="376.98 76.92 320.45 106.8 320.4 89.39 376.93 59.51 376.98 76.92"/><polygon class="cls-3" points="405.69 44.02 349.15 73.91 301.28 70.56 357.82 40.68 405.69 44.02"/><polygon class="cls-6" points="404.62 96.36 348.08 126.24 320.5 124.31 377.03 94.43 404.62 96.36"/><polygon class="cls-3" points="344.44 39.74 287.9 69.62 282.27 69.23 338.8 39.35 344.44 39.74"/><polygon class="cls-4" points="338.8 39.35 282.27 69.23 282.21 49.33 338.75 19.45 338.8 39.35"/><polygon class="cls-3" points="405.88 114.05 349.35 143.94 320.54 141.92 377.08 112.04 405.88 114.05"/><polygon class="cls-4" points="377.08 112.04 320.54 141.92 320.5 124.31 377.03 94.43 377.08 112.04"/><polygon class="cls-5" points="358.06 128.22 301.52 158.1 301.28 70.56 357.82 40.68 358.06 128.22"/><polygon class="cls-10" points="338.84 53.4 282.31 83.28 287.9 69.62 344.44 39.74 338.84 53.4"/><polygon class="cls-3" points="338.8 39.35 282.27 69.23 266.4 68.12 322.93 38.24 338.8 39.35"/><polygon class="cls-6" points="405.93 131.56 349.39 161.45 301.52 158.1 358.06 128.22 405.93 131.56"/><polygon class="cls-8" points="405.69 44.02 405.73 61.53 376.93 59.51 376.98 76.92 404.57 78.85 404.62 96.36 377.03 94.43 377.08 112.04 405.88 114.05 405.93 131.56 358.06 128.22 357.82 40.68 405.69 44.02"/><polygon class="cls-4" points="338.98 104.84 282.45 134.72 282.31 83.28 338.84 53.4 338.98 104.84"/><polygon class="cls-10" points="301.84 38.75 245.3 68.63 253.28 47.31 309.81 17.43 301.84 38.75"/><polygon class="cls-3" points="408.06 151.61 351.52 181.49 282.56 176.66 339.1 146.78 408.06 151.61"/><polygon class="cls-4" points="339.1 146.78 282.56 176.66 282.45 134.72 338.98 104.84 339.1 146.78"/><polygon class="cls-10" points="309.58 124.83 253.05 154.71 282.31 83.28 338.84 53.4 309.58 124.83"/><polygon class="cls-5" points="301.99 94.28 245.46 124.16 266.4 68.12 322.93 38.24 301.99 94.28"/><polygon class="cls-26" points="301.99 94.28 245.46 124.16 224.21 65.17 280.74 35.29 301.99 94.28"/><polygon class="cls-3" points="280.74 35.29 224.21 65.17 202.7 63.66 259.23 33.78 280.74 35.29"/><polygon class="cls-8" points="344.44 39.74 338.84 53.4 309.58 124.83 294.57 123.78 259.23 33.78 280.74 35.29 301.99 94.28 322.93 38.24 338.8 39.35 344.44 39.74"/><polygon class="cls-6" points="309.58 124.83 253.05 154.71 238.04 153.66 294.57 123.78 309.58 124.83"/><polygon class="cls-27" points="294.57 123.78 238.04 153.66 202.7 63.66 259.23 33.78 294.57 123.78"/><polygon class="cls-4" points="247.13 50.44 190.59 80.32 190.54 62.81 247.08 32.93 247.13 50.44"/><polygon class="cls-6" points="247.13 50.44 190.59 80.32 189.15 80.22 245.68 50.34 247.13 50.44"/><polygon class="cls-7" points="338.75 19.45 338.8 39.35 322.93 38.24 301.99 94.28 280.74 35.29 259.23 33.78 294.57 123.78 309.58 124.83 338.84 53.4 338.98 104.84 322.28 145.61 281.98 142.79 266.27 102.78 245.68 50.34 247.13 50.44 247.08 32.93 238.62 32.34 230.59 11.89 293.75 16.31 301.84 38.75 309.81 17.43 338.75 19.45"/><path class="cls-7" d="M338.74,19.45l69,4.82.35,127.34-69-4.83L339,104.84l-.14-51.44,5.6-13.66-5.64-.39Zm67,42.08,0-17.51-47.87-3.34.24,87.54,47.87,3.35-.05-17.52-28.8-2L377,94.43l27.58,1.93,0-17.51L377,76.92l-.05-17.41,28.8,2"/><polygon class="cls-3" points="247.08 32.93 190.54 62.81 182.09 62.22 238.62 32.34 247.08 32.93"/><polygon class="cls-26" points="238.62 32.34 182.09 62.22 174.06 41.77 230.59 11.89 238.62 32.34"/><polygon class="cls-26" points="266.27 102.78 209.74 132.66 189.15 80.22 245.68 50.34 266.27 102.78"/><polygon class="cls-3" points="322.28 145.61 265.75 175.49 225.45 172.67 281.98 142.79 322.28 145.61"/><polygon class="cls-26" points="281.98 142.79 225.45 172.67 209.74 132.66 266.27 102.78 281.98 142.79"/><polygon class="cls-4" points="246 85.27 189.47 115.15 189.42 97.64 245.95 67.76 246 85.27"/><polygon class="cls-6" points="245.68 50.34 189.15 80.22 161.79 78.3 218.32 48.42 245.68 50.34"/><polygon class="cls-4" points="247.32 120.47 190.79 150.36 190.74 132.84 247.27 102.96 247.32 120.47"/><polygon class="cls-4" points="218.37 65.83 161.84 95.71 161.79 78.3 218.32 48.42 218.37 65.83"/><polygon class="cls-3" points="245.95 67.76 189.42 97.64 161.84 95.71 218.37 65.83 245.95 67.76"/><polygon class="cls-3" points="238.62 32.34 182.09 62.22 142.67 59.47 199.2 29.59 238.62 32.34"/><polygon class="cls-6" points="246 85.27 189.47 115.15 161.89 113.22 218.42 83.34 246 85.27"/><polygon class="cls-3" points="247.27 102.96 190.74 132.84 161.94 130.83 218.47 100.95 247.27 102.96"/><polygon class="cls-4" points="218.47 100.95 161.94 130.83 161.89 113.22 218.42 83.34 218.47 100.95"/><polygon class="cls-5" points="199.44 117.13 142.91 147.01 142.67 59.47 199.2 29.59 199.44 117.13"/><polygon class="cls-4" points="180.33 78.39 123.8 108.27 123.6 38.24 180.14 8.36 180.33 78.39"/><polygon class="cls-6" points="247.32 120.47 190.79 150.36 142.91 147.01 199.44 117.13 247.32 120.47"/><polygon class="cls-8" points="247.08 32.93 247.13 50.44 245.68 50.34 218.32 48.42 218.37 65.83 245.95 67.76 246 85.27 218.42 83.34 218.47 100.95 247.27 102.96 247.32 120.47 199.44 117.13 199.2 29.59 238.62 32.34 247.08 32.93"/><polygon class="cls-3" points="266.38 141.7 209.85 171.58 142.41 166.86 198.95 136.98 266.38 141.7"/><polygon class="cls-4" points="180.49 135.69 123.95 165.57 123.8 108.27 180.33 78.39 180.49 135.69"/><polygon class="cls-3" points="198.95 136.98 142.41 166.86 123.95 165.57 180.49 135.69 198.95 136.98"/><polygon class="cls-7" points="230.59 11.89 238.62 32.34 199.2 29.59 199.44 117.13 247.32 120.47 247.27 102.96 218.47 100.95 218.42 83.34 246 85.27 245.95 67.76 218.37 65.83 218.32 48.42 245.68 50.34 266.27 102.78 266.38 141.7 198.95 136.98 180.49 135.69 180.33 78.39 180.14 8.36 230.59 11.89"/></g><g class="cls-2"><polygon class="cls-4" points="179.88 115.76 123.34 145.64 123.3 128.13 179.83 98.25 179.88 115.76"/><polygon class="cls-3" points="150.83 26.2 94.3 56.08 75.23 54.75 131.76 24.87 150.83 26.2"/><polygon class="cls-3" points="179.83 98.25 123.3 128.13 94.49 126.11 151.02 96.23 179.83 98.25"/><polygon class="cls-4" points="151.02 96.23 94.49 126.11 94.3 56.08 150.83 26.2 151.02 96.23"/><polygon class="cls-5" points="132.01 112.41 75.47 142.29 75.23 54.75 131.76 24.87 132.01 112.41"/><polygon class="cls-8" points="150.83 26.2 151.02 96.23 179.83 98.25 179.88 115.76 132.01 112.41 131.76 24.87 150.83 26.2"/><polygon class="cls-6" points="179.88 115.76 123.34 145.64 75.47 142.29 132.01 112.41 179.88 115.76"/><polygon class="cls-3" points="180.49 135.69 123.95 165.57 56.51 160.86 113.05 130.98 180.49 135.69"/><path class="cls-7" d="M170,77.67l10.34.72.16,57.3L113,131,112.69,3.64l57.1,4Zm9.89,38.09,0-17.51-28.81-2-.19-70-19.07-1.33.25,87.54,47.87,3.35"/><polygon class="cls-4" points="113.05 130.98 56.51 160.86 56.16 33.53 112.69 3.65 113.05 130.98"/></g><g class="cls-2"><polygon class="cls-3" points="103.15 51.88 46.62 81.76 0.13 78.51 56.67 48.63 103.15 51.88"/><polygon class="cls-4" points="56.67 48.63 0.13 78.51 0 29.88 56.53 0 56.67 48.63"/><polygon class="cls-7" points="103.02 3.25 103.15 51.88 56.67 48.63 56.53 0 103.02 3.25"/></g><g class="cls-2"><polygon class="cls-3" points="103.24 85.04 46.71 114.92 23.47 113.29 80 83.41 103.24 85.04"/><polygon class="cls-4" points="80 83.41 23.47 113.29 23.4 88.98 79.93 59.09 80 83.41"/><polygon class="cls-7" points="103.18 60.72 103.24 85.04 80 83.41 79.93 59.09 103.18 60.72"/></g><g class="cls-2"><polygon class="cls-3" points="86.46 128.06 29.93 157.94 23.59 157.5 80.12 127.61 86.46 128.06"/><polygon class="cls-4" points="80.12 127.61 23.59 157.5 23.57 150.87 80.1 120.99 80.12 127.61"/><polygon class="cls-7" points="86.44 121.43 86.46 128.06 80.12 127.61 80.1 120.99 86.44 121.43"/></g><g class="cls-2"><polygon class="cls-3" points="80.07 107.73 23.54 137.61 10.86 136.72 67.39 106.84 80.07 107.73"/><polygon class="cls-4" points="67.39 106.84 10.86 136.72 10.83 123.46 67.36 93.58 67.39 106.84"/><polygon class="cls-7" points="80.03 94.46 80.07 107.73 67.39 106.84 67.36 93.58 80.03 94.46"/></g><g class="cls-2"><polygon class="cls-3" points="560.98 184.09 504.45 213.97 499.43 213.62 555.96 183.74 560.98 184.09"/><polygon class="cls-3" points="537.9 182.48 481.37 212.36 475.65 211.96 532.18 182.08 537.9 182.48"/><polygon class="cls-4" points="553.29 230.11 496.76 259.99 504.45 213.97 560.98 184.09 553.29 230.11"/><polygon class="cls-26" points="549.7 221.28 493.17 251.16 493.09 250.89 549.62 221 549.7 221.28"/><polygon class="cls-6" points="549.58 221.27 493.05 251.15 499.43 213.62 555.96 183.74 549.58 221.27"/><polygon class="cls-26" points="481.37 212.36 537.9 182.48 549.62 221 493.09 250.89 481.37 212.36"/><polygon class="cls-4" points="520.25 172.07 463.71 201.96 464.49 197.32 521.02 167.44 520.25 172.07"/><polygon class="cls-28" points="547.57 229.71 491.04 259.59 479.42 220.8 535.96 190.92 547.57 229.71"/><polygon class="cls-29" points="553.29 230.11 496.76 259.99 491.04 259.59 547.57 229.71 553.29 230.11"/><polygon class="cls-4" points="517.26 189.9 460.73 219.78 463.71 201.96 520.25 172.07 517.26 189.9"/><polygon class="cls-4" points="529.57 228.45 473.04 258.33 479.3 220.79 535.83 190.91 529.57 228.45"/><polygon class="cls-6" points="524.49 228.1 467.95 257.98 475.65 211.96 532.18 182.08 524.49 228.1"/><g class="cls-2"><g class="cls-30"><g class="cls-2"><path class="cls-10" d="M511.91,222l-56.54,29.88c.3-.3.58-.61.87-.94a24.27,24.27,0,0,0,4.58-8.65,38.92,38.92,0,0,0,1.72-12.06,28.24,28.24,0,0,0-1.81-10.41l56.53-29.88a28.24,28.24,0,0,1,1.81,10.41,38.92,38.92,0,0,1-1.72,12.06,24.27,24.27,0,0,1-4.58,8.65c-.29.33-.57.64-.86.94"/></g></g></g><polygon class="cls-29" points="529.57 228.45 473.04 258.33 467.95 257.98 524.49 228.1 529.57 228.45"/><polygon class="cls-31" points="560.98 184.09 553.29 230.11 547.57 229.71 535.96 190.92 529.57 228.45 524.49 228.1 532.18 182.08 537.9 182.48 549.58 221.27 555.96 183.74 560.98 184.09"/><g class="cls-2"><g class="cls-32"><g class="cls-2"><path class="cls-10" d="M517.26,189.9l-56.53,29.88a20.55,20.55,0,0,0-2.43-4.48A14.52,14.52,0,0,0,440,210.37l-.78.38,56.53-29.88.78-.39a14.54,14.54,0,0,1,18.29,4.94,20.55,20.55,0,0,1,2.43,4.48"/></g></g></g><g class="cls-2"><g class="cls-33"><g class="cls-2"><path class="cls-10" d="M511.91,222l-56.54,29.88c.3-.3.58-.61.87-.94a24.27,24.27,0,0,0,4.58-8.65,38.92,38.92,0,0,0,1.72-12.06,28.24,28.24,0,0,0-1.81-10.41l56.53-29.88a28.24,28.24,0,0,1,1.81,10.41,38.92,38.92,0,0,1-1.72,12.06,24.27,24.27,0,0,1-4.58,8.65c-.29.33-.57.64-.86.94"/></g></g></g><g class="cls-2"><g class="cls-34"><g class="cls-2"><path class="cls-6" d="M509.35,216.23l-56.53,29.88q4.08-6.13,4.06-16,0-7-2.61-11.35a8.81,8.81,0,0,0-7.23-4.63,9.21,9.21,0,0,0-5.09,1.06l56.53-29.88a9.23,9.23,0,0,1,5.09-1.06,8.83,8.83,0,0,1,7.24,4.62q2.58,4.32,2.6,11.36,0,9.85-4.06,16"/></g></g></g><g class="cls-2"><g class="cls-35"><g class="cls-2"><path class="cls-10" d="M511.91,222l-56.54,29.88c.3-.3.58-.61.87-.94a24.27,24.27,0,0,0,4.58-8.65,38.92,38.92,0,0,0,1.72-12.06,28.24,28.24,0,0,0-1.81-10.41l56.53-29.88a28.24,28.24,0,0,1,1.81,10.41,38.92,38.92,0,0,1-1.72,12.06,24.27,24.27,0,0,1-4.58,8.65c-.29.33-.57.64-.86.94"/></g></g></g><polygon class="cls-4" points="508.87 240.12 452.34 270 455.38 251.84 511.91 221.96 508.87 240.12"/><g class="cls-2"><g class="cls-36"><g class="cls-2"><path class="cls-10" d="M507.09,225.62,450.56,255.5a19.17,19.17,0,0,0,4.81-3.66L511.91,222a19.4,19.4,0,0,1-4.82,3.66"/></g></g></g><g class="cls-2"><g class="cls-37"><g class="cls-2"><path class="cls-6" d="M504.51,220.91,448,250.79a13.62,13.62,0,0,0,4.84-4.68l56.53-29.88a13.71,13.71,0,0,1-4.84,4.68"/></g></g></g><polygon class="cls-3" points="564.45 244.75 507.91 274.63 452.22 270.73 508.75 240.85 564.45 244.75"/><path class="cls-7" d="M521,167.44l55.7,3.9-12.27,73.41-55.7-3.9.12-.73,3-18.16c.29-.3.57-.61.86-.94a24.27,24.27,0,0,0,4.58-8.65,38.92,38.92,0,0,0,1.72-12.06,28.24,28.24,0,0,0-1.81-10.41l3-17.83Zm32.27,62.67,7.69-46-5-.35-6.26,37.53-11.8-38.79-5.72-.4-7.69,46,5.08.35,6.26-37.54,11.74,38.8,5.72.4"/><polygon class="cls-4" points="508.75 240.85 452.22 270.73 452.34 270 508.87 240.12 508.75 240.85"/><g class="cls-2"><g class="cls-38"><g class="cls-2"><path class="cls-10" d="M474.64,184.3l-56.53,29.88a33.89,33.89,0,0,1,5.5-8.74,34.89,34.89,0,0,1,2.48-2.53,31.1,31.1,0,0,1,6.54-4.65l56.53-29.88a31.1,31.1,0,0,0-6.54,4.65,34.93,34.93,0,0,0-2.48,2.53,33.89,33.89,0,0,0-5.5,8.74"/></g></g></g><g class="cls-2"><g class="cls-39"><g class="cls-2"><path class="cls-10" d="M474.64,184.3l-56.53,29.88a20.51,20.51,0,0,0-1.14-1.77,14.52,14.52,0,0,0-18.29-4.93l-.78.38L454.43,178l.78-.39a14.55,14.55,0,0,1,18.3,4.94c.4.56.78,1.16,1.13,1.77"/></g></g></g><g class="cls-2"><g class="cls-40"><g class="cls-2"><path class="cls-10" d="M474.64,184.3l-56.53,29.88a20.51,20.51,0,0,0-1.14-1.77,14.52,14.52,0,0,0-18.29-4.93l-.78.38L454.43,178l.78-.39a14.55,14.55,0,0,1,18.3,4.94c.4.56.78,1.16,1.13,1.77"/></g></g></g><g class="cls-2"><g class="cls-41"><g class="cls-2"><path class="cls-10" d="M504.51,220.91,448,250.79a9.26,9.26,0,0,1-5,1.05,9.11,9.11,0,0,1-7.45-4.55c-1.75-2.8-2.62-6.55-2.64-11.26q0-9.84,4.15-16.07a14.08,14.08,0,0,1,4.94-4.75l56.53-29.88a14,14,0,0,0-4.94,4.75q-4.17,6.24-4.15,16.07,0,7,2.64,11.26a9.5,9.5,0,0,0,12.48,3.5"/></g></g></g><path class="cls-7" d="M503.57,184.27a8.83,8.83,0,0,1,7.24,4.62q2.58,4.32,2.6,11.36,0,9.85-4.06,16T499.48,222a9.1,9.1,0,0,1-7.45-4.54q-2.61-4.22-2.64-11.26,0-9.84,4.15-16.07T503.57,184.27Z"/><g class="cls-2"><g class="cls-42"><g class="cls-2"><path class="cls-6" d="M507.09,225.62,450.56,255.5l-.64.32a13.8,13.8,0,0,1-7,1.4A14.79,14.79,0,0,1,431.54,251q-4.25-5.76-4.27-15a39.16,39.16,0,0,1,1.71-12,23.9,23.9,0,0,1,4.63-8.66,20,20,0,0,1,5.62-4.52l56.53-29.88a20.09,20.09,0,0,0-5.62,4.51,24.07,24.07,0,0,0-4.63,8.66,39.2,39.2,0,0,0-1.71,12.05q0,9.25,4.27,15a14.77,14.77,0,0,0,11.36,6.25,13.78,13.78,0,0,0,7-1.4l.64-.32"/></g></g></g><path class="cls-31" d="M517.26,189.9a28.24,28.24,0,0,1,1.81,10.41,38.92,38.92,0,0,1-1.72,12.06,24.27,24.27,0,0,1-4.58,8.65c-.29.33-.57.64-.86.94a19.19,19.19,0,0,1-5.46,4,13.78,13.78,0,0,1-7,1.4,14.77,14.77,0,0,1-11.36-6.25q-4.24-5.75-4.27-15A39.2,39.2,0,0,1,485.51,194a24.07,24.07,0,0,1,4.63-8.66,19.69,19.69,0,0,1,6.4-4.9,14.54,14.54,0,0,1,18.29,4.94A20.55,20.55,0,0,1,517.26,189.9Zm-7.91,26.33q4.1-6.14,4.06-16,0-7-2.6-11.36a8.83,8.83,0,0,0-7.24-4.62q-5.85-.42-10,5.81t-4.15,16.07q0,7,2.64,11.26a9.1,9.1,0,0,0,7.45,4.54q5.79.41,9.87-5.72"/><g class="cls-2"><g class="cls-43"><g class="cls-2"><path class="cls-10" d="M474.64,184.3l-56.53,29.88a20.51,20.51,0,0,0-1.14-1.77,14.52,14.52,0,0,0-18.29-4.93l-.78.38L454.43,178l.78-.39a14.55,14.55,0,0,1,18.3,4.94c.4.56.78,1.16,1.13,1.77"/></g></g></g><g class="cls-2"><g class="cls-44"><g class="cls-2"><path class="cls-10" d="M472.13,217.3l-56.54,29.88a25.3,25.3,0,0,0,3.9-7.82,38.92,38.92,0,0,0,1.72-12.06,26.33,26.33,0,0,0-3.1-13.12l56.53-29.88a26.33,26.33,0,0,1,3.1,13.12A39.22,39.22,0,0,1,476,209.48a25.74,25.74,0,0,1-3.9,7.82"/></g></g></g><g class="cls-2"><g class="cls-45"><g class="cls-2"><path class="cls-6" d="M470.63,207.84,414.1,237.72a34.25,34.25,0,0,0,1.45-10.48,32.38,32.38,0,0,0-.29-4.32,18.56,18.56,0,0,0-2.32-7,8.81,8.81,0,0,0-7.23-4.63,9.18,9.18,0,0,0-5.08,1.06l56.53-29.89a9.26,9.26,0,0,1,5.08-1.05,8.8,8.8,0,0,1,7.23,4.62,18.67,18.67,0,0,1,2.32,7,32.38,32.38,0,0,1,.29,4.32,34,34,0,0,1-1.45,10.48"/></g></g></g><path class="cls-7" d="M471.79,193a32.38,32.38,0,0,1,.29,4.32,34,34,0,0,1-1.45,10.48c-.05-.88-.07-1.77-.07-2.67A55.62,55.62,0,0,1,471.79,193Z"/><g class="cls-2"><g class="cls-46"><g class="cls-2"><path class="cls-10" d="M470.63,207.84,414.1,237.72c-.05-.88-.07-1.77-.08-2.67a56.23,56.23,0,0,1,1.24-12.13L471.79,193a55.62,55.62,0,0,0-1.23,12.13c0,.9,0,1.79.07,2.67"/></g></g></g><g class="cls-2"><g class="cls-47"><g class="cls-2"><path class="cls-10" d="M474.64,184.3l-56.53,29.88a20.51,20.51,0,0,0-1.14-1.77,14.52,14.52,0,0,0-18.29-4.93l-.78.38L454.43,178l.78-.39a14.55,14.55,0,0,1,18.3,4.94c.4.56.78,1.16,1.13,1.77"/></g></g></g><g class="cls-2"><g class="cls-48"><g class="cls-2"><path class="cls-10" d="M508.87,240.12,452.34,270a25.57,25.57,0,0,1-9.4,1.08,28.59,28.59,0,0,1-20.55-10.66c-.38-.46-.76-.94-1.12-1.43a35.82,35.82,0,0,1-5.68-11.81l56.54-29.88a35.65,35.65,0,0,0,5.67,11.8c.36.5.74,1,1.12,1.44a28.59,28.59,0,0,0,20.55,10.66,25.76,25.76,0,0,0,9.4-1.08"/></g></g></g><g class="cls-2"><g class="cls-49"><g class="cls-2"><path class="cls-10" d="M465.76,222.73l-56.53,29.88a20,20,0,0,0,5.68-4.6c.24-.26.46-.54.68-.83l56.54-29.88c-.23.29-.45.57-.69.83a20,20,0,0,1-5.68,4.6"/></g></g></g><g class="cls-2"><g class="cls-50"><g class="cls-2"><path class="cls-10" d="M465.76,222.73l-56.53,29.88a20,20,0,0,0,5.68-4.6c.24-.26.46-.54.68-.83l56.54-29.88c-.23.29-.45.57-.69.83a20,20,0,0,1-5.68,4.6"/></g></g></g><g class="cls-2"><g class="cls-51"><g class="cls-2"><path class="cls-10" d="M465.76,222.73l-56.53,29.88a20,20,0,0,0,5.68-4.6c.24-.26.46-.54.68-.83l56.54-29.88c-.23.29-.45.57-.69.83a20,20,0,0,1-5.68,4.6"/></g></g></g><g class="cls-2"><g class="cls-52"><g class="cls-2"><path class="cls-6" d="M463.18,218,406.64,247.9a13.56,13.56,0,0,0,4.85-4.68,22,22,0,0,0,2.61-5.5l56.53-29.88a22,22,0,0,1-2.61,5.5,13.71,13.71,0,0,1-4.84,4.68"/></g></g></g><g class="cls-2"><g class="cls-53"><g class="cls-2"><path class="cls-10" d="M433.71,180.55l-56.53,29.88a33.2,33.2,0,0,1,5.1-7.88,32.67,32.67,0,0,1,3-3,31.22,31.22,0,0,1,6-4.18l56.53-29.88a30.78,30.78,0,0,0-6,4.18,32.67,32.67,0,0,0-3,3,33.2,33.2,0,0,0-5.1,7.88"/></g></g></g><g class="cls-2"><g class="cls-54"><g class="cls-2"><path class="cls-10" d="M463.18,218,406.64,247.9a9.21,9.21,0,0,1-5,1,9.11,9.11,0,0,1-7.45-4.55q-2.62-4.2-2.64-11.26,0-9.84,4.16-16.07a14,14,0,0,1,4.94-4.75l56.53-29.89a14.12,14.12,0,0,0-4.94,4.76q-4.19,6.23-4.16,16.07,0,7.05,2.64,11.26a9.5,9.5,0,0,0,12.48,3.5"/></g></g></g><g class="cls-2"><g class="cls-55"><g class="cls-2"><path class="cls-10" d="M435.69,187.76l-56.53,29.88a14.46,14.46,0,0,0-2-7.21l56.53-29.88a14.46,14.46,0,0,1,2,7.21"/></g></g></g><polygon class="cls-29" points="435.69 187.76 379.16 217.64 374.45 217.89 430.99 188.01 435.69 187.76"/><g class="cls-2"><g class="cls-56"><g class="cls-2"><path class="cls-6" d="M465.76,222.73l-56.53,29.88c-.21.11-.42.22-.64.32a13.76,13.76,0,0,1-7,1.4,14.78,14.78,0,0,1-11.37-6.24q-4.24-5.76-4.27-15A39.11,39.11,0,0,1,387.65,221a23.9,23.9,0,0,1,4.63-8.66,20,20,0,0,1,5.62-4.52L454.43,178a20.09,20.09,0,0,0-5.62,4.51,24.22,24.22,0,0,0-4.63,8.66,39.2,39.2,0,0,0-1.71,12q0,9.24,4.27,15a14.78,14.78,0,0,0,11.37,6.25,13.76,13.76,0,0,0,7-1.4l.64-.32"/></g></g></g><path class="cls-7" d="M462.38,162.34A28.09,28.09,0,0,1,482.62,173a34.93,34.93,0,0,0-2.48,2.53,33.89,33.89,0,0,0-5.5,8.74c-.35-.61-.73-1.21-1.13-1.77a14.55,14.55,0,0,0-18.3-4.94,19.58,19.58,0,0,0-6.4,4.9,24.22,24.22,0,0,0-4.63,8.66,39.2,39.2,0,0,0-1.71,12q0,9.24,4.27,15a14.78,14.78,0,0,0,11.37,6.25,13.76,13.76,0,0,0,7-1.4,19.56,19.56,0,0,0,6.32-4.92c.24-.26.46-.54.69-.83a35.65,35.65,0,0,0,5.67,11.8c.36.5.74,1,1.12,1.44a30.62,30.62,0,0,1-7.63,5.22,26,26,0,0,1-13.14,2.55,28.5,28.5,0,0,1-19.51-9.45,33.6,33.6,0,0,1-2.16-2.65,35.28,35.28,0,0,1-5.15-10,13.59,13.59,0,0,0,2.7-8.51,11.05,11.05,0,0,0-2.63-7.44,15,15,0,0,0-2.06-1.94A52.32,52.32,0,0,1,431,188l4.7-.25a14.46,14.46,0,0,0-2-7.21,33.2,33.2,0,0,1,5.1-7.88,32.67,32.67,0,0,1,3-3,30.44,30.44,0,0,1,7.32-4.83A26.5,26.5,0,0,1,462.38,162.34Z"/><path class="cls-7" d="M503.71,165.23a27.7,27.7,0,0,1,16.54,6.84l-3,17.83a20.55,20.55,0,0,0-2.43-4.48,14.54,14.54,0,0,0-18.29-4.94,19.69,19.69,0,0,0-6.4,4.9,24.07,24.07,0,0,0-4.63,8.66,39.2,39.2,0,0,0-1.71,12.05q0,9.25,4.27,15a14.77,14.77,0,0,0,11.36,6.25,13.78,13.78,0,0,0,7-1.4,19.19,19.19,0,0,0,5.46-4l-3,18.16a25.76,25.76,0,0,1-9.4,1.08,28.59,28.59,0,0,1-20.55-10.66c-.38-.47-.76-.94-1.12-1.44a35.65,35.65,0,0,1-5.67-11.8,25.74,25.74,0,0,0,3.9-7.82,39.22,39.22,0,0,0,1.71-12.06,26.33,26.33,0,0,0-3.1-13.12,33.89,33.89,0,0,1,5.5-8.74,34.93,34.93,0,0,1,2.48-2.53,31,31,0,0,1,7.84-5.3A26.5,26.5,0,0,1,503.71,165.23Z"/><g class="cls-2"><g class="cls-57"><g class="cls-2"><path class="cls-10" d="M433.71,180.55l-56.53,29.88a13.82,13.82,0,0,0-2.31-2.85,16,16,0,0,0-10.31-4.39A15.67,15.67,0,0,0,356,204.7l56.53-29.88a15.69,15.69,0,0,1,8.53-1.51,16.07,16.07,0,0,1,10.31,4.38,13.81,13.81,0,0,1,2.31,2.86"/></g></g></g><path class="cls-7" d="M469.47,186a18.67,18.67,0,0,1,2.32,7,55.62,55.62,0,0,0-1.23,12.13c0,.9,0,1.79.07,2.67a22,22,0,0,1-2.61,5.5q-4.08,6.14-9.87,5.72a9.1,9.1,0,0,1-7.45-4.54q-2.61-4.22-2.64-11.26,0-9.84,4.16-16.07c2.79-4.15,6.12-6.09,10-5.81A8.8,8.8,0,0,1,469.47,186Z"/><polygon class="cls-29" points="430.99 188.01 374.45 217.89 373.69 217.93 430.22 188.05 430.99 188.01"/><path class="cls-31" d="M474.64,184.3a26.33,26.33,0,0,1,3.1,13.12A39.22,39.22,0,0,1,476,209.48a25.74,25.74,0,0,1-3.9,7.82c-.23.29-.45.57-.69.83a19.56,19.56,0,0,1-6.32,4.92,13.76,13.76,0,0,1-7,1.4,14.78,14.78,0,0,1-11.37-6.25q-4.25-5.74-4.27-15a39.2,39.2,0,0,1,1.71-12,24.22,24.22,0,0,1,4.63-8.66,19.58,19.58,0,0,1,6.4-4.9,14.55,14.55,0,0,1,18.3,4.94C473.91,183.09,474.29,183.69,474.64,184.3Zm-4,23.54a34,34,0,0,0,1.45-10.48,32.38,32.38,0,0,0-.29-4.32,18.67,18.67,0,0,0-2.32-7,8.8,8.8,0,0,0-7.23-4.62c-3.9-.28-7.23,1.66-10,5.81s-4.17,9.51-4.16,16.07q0,7.05,2.64,11.26a9.1,9.1,0,0,0,7.45,4.54q5.79.41,9.87-5.72a22,22,0,0,0,2.61-5.5"/><g class="cls-2"><g class="cls-58"><g class="cls-2"><path class="cls-10" d="M433.71,180.55l-56.53,29.88a13.82,13.82,0,0,0-2.31-2.85,16,16,0,0,0-10.31-4.39A15.67,15.67,0,0,0,356,204.7l56.53-29.88a15.69,15.69,0,0,1,8.53-1.51,16.07,16.07,0,0,1,10.31,4.38,13.81,13.81,0,0,1,2.31,2.86"/></g></g></g><g class="cls-2"><g class="cls-59"><g class="cls-2"><path class="cls-10" d="M433.71,180.55l-56.53,29.88a13.82,13.82,0,0,0-2.31-2.85,16,16,0,0,0-10.31-4.39A15.67,15.67,0,0,0,356,204.7l56.53-29.88a15.69,15.69,0,0,1,8.53-1.51,16.07,16.07,0,0,1,10.31,4.38,13.81,13.81,0,0,1,2.31,2.86"/></g></g></g><g class="cls-2"><g class="cls-60"><g class="cls-2"><path class="cls-10" d="M429.34,198.29l-56.53,29.88a53.07,53.07,0,0,1,1.64-10.28L431,188a52.32,52.32,0,0,0-1.65,10.28"/></g></g></g><g class="cls-2"><g class="cls-61"><g class="cls-2"><path class="cls-6" d="M430.22,188.05l-56.53,29.88a10.86,10.86,0,0,0-2.56-6.66,9.3,9.3,0,0,0-6.74-3,9.84,9.84,0,0,0-5.38.95l56.53-29.88a9.86,9.86,0,0,1,5.38-1,9.31,9.31,0,0,1,6.75,3,10.89,10.89,0,0,1,2.55,6.66"/></g></g></g><g class="cls-2"><g class="cls-62"><g class="cls-2"><path class="cls-10" d="M433.71,180.55l-56.53,29.88a13.82,13.82,0,0,0-2.31-2.85,16,16,0,0,0-10.31-4.39A15.67,15.67,0,0,0,356,204.7l56.53-29.88a15.69,15.69,0,0,1,8.53-1.51,16.07,16.07,0,0,1,10.31,4.38,13.81,13.81,0,0,1,2.31,2.86"/></g></g></g><g class="cls-2"><g class="cls-63"><g class="cls-2"><path class="cls-10" d="M429.34,198.29l-56.53,29.88a37.53,37.53,0,0,0-7-4.2q-6.81-3.27-8.66-4.9a5.12,5.12,0,0,1-1.86-4,6.23,6.23,0,0,1,2.5-5.07,6.38,6.38,0,0,1,1.2-.79l56.53-29.88a7.26,7.26,0,0,0-1.2.78,6.26,6.26,0,0,0-2.5,5.08,5.14,5.14,0,0,0,1.86,4q1.85,1.62,8.66,4.9a37.19,37.19,0,0,1,7,4.2"/></g></g></g><g class="cls-2"><g class="cls-64"><g class="cls-2"><path class="cls-10" d="M431.33,216.18,374.8,246.06a13.59,13.59,0,0,0,2.7-8.51,11.05,11.05,0,0,0-2.63-7.44,15,15,0,0,0-2.06-1.94l56.53-29.88a15,15,0,0,1,2.06,1.94,11.05,11.05,0,0,1,2.63,7.44,13.59,13.59,0,0,1-2.7,8.51"/></g></g></g><g class="cls-2"><g class="cls-65"><g class="cls-2"><path class="cls-10" d="M472.35,235.23l-56.54,29.88c-.34.19-.7.36-1.05.53a26,26,0,0,1-13.14,2.55,28.5,28.5,0,0,1-19.51-9.45A33,33,0,0,1,380,256.1a35.47,35.47,0,0,1-5.15-10l56.53-29.88a35.28,35.28,0,0,0,5.15,10,33.6,33.6,0,0,0,2.16,2.65,28.5,28.5,0,0,0,19.51,9.45,26,26,0,0,0,13.14-2.55c.36-.17.71-.34,1.06-.53"/></g></g></g><g class="cls-2"><g class="cls-66"><g class="cls-2"><path class="cls-10" d="M429.34,198.29l-56.53,29.88a37.53,37.53,0,0,0-7-4.2q-6.81-3.27-8.66-4.9a5.12,5.12,0,0,1-1.86-4,6.23,6.23,0,0,1,2.5-5.07,6.38,6.38,0,0,1,1.2-.79l56.53-29.88a7.26,7.26,0,0,0-1.2.78,6.26,6.26,0,0,0-2.5,5.08,5.14,5.14,0,0,0,1.86,4q1.85,1.62,8.66,4.9a37.19,37.19,0,0,1,7,4.2"/></g></g></g><g class="cls-2"><g class="cls-67"><g class="cls-2"><path class="cls-10" d="M429.34,198.29l-56.53,29.88a37.53,37.53,0,0,0-7-4.2q-6.81-3.27-8.66-4.9a5.12,5.12,0,0,1-1.86-4,6.23,6.23,0,0,1,2.5-5.07,6.38,6.38,0,0,1,1.2-.79l56.53-29.88a7.26,7.26,0,0,0-1.2.78,6.26,6.26,0,0,0-2.5,5.08,5.14,5.14,0,0,0,1.86,4q1.85,1.62,8.66,4.9a37.19,37.19,0,0,1,7,4.2"/></g></g></g><path class="cls-7" d="M420.92,178.42a9.31,9.31,0,0,1,6.75,3,10.89,10.89,0,0,1,2.55,6.66l.77,0a52.32,52.32,0,0,0-1.65,10.28,37.19,37.19,0,0,0-7-4.2q-6.81-3.27-8.66-4.9a5.14,5.14,0,0,1-1.86-4,6.26,6.26,0,0,1,2.5-5.08A9.12,9.12,0,0,1,420.92,178.42Z"/><g class="cls-2"><g class="cls-68"><g class="cls-2"><path class="cls-10" d="M426.82,220l-56.53,29.88a13.11,13.11,0,0,0,2.78-2,13.88,13.88,0,0,0,1.73-1.89l56.53-29.88a15.15,15.15,0,0,1-1.72,1.89,13.17,13.17,0,0,1-2.79,2"/></g></g></g><g class="cls-2"><g class="cls-69"><g class="cls-2"><path class="cls-6" d="M423.76,215.33l-56.53,29.88A10.22,10.22,0,0,0,369,244a8.27,8.27,0,0,0,3-6.64,6.54,6.54,0,0,0-1.82-4.48c-1.21-1.35-3.65-2.86-7.29-4.54-4.89-2.25-8.29-4.31-10.23-6.2a9.79,9.79,0,0,1-2.91-7.29,11,11,0,0,1,4-8.63A11.31,11.31,0,0,1,356,204.7l56.53-29.88a11.31,11.31,0,0,0-2.23,1.53,11,11,0,0,0-4,8.63,9.85,9.85,0,0,0,2.91,7.29q2.91,2.83,10.23,6.2,5.48,2.52,7.29,4.53a6.59,6.59,0,0,1,1.82,4.49,8.27,8.27,0,0,1-3,6.64,10.22,10.22,0,0,1-1.77,1.2"/></g></g></g><g class="cls-2"><g class="cls-70"><g class="cls-2"><path class="cls-10" d="M423.76,215.33l-56.53,29.88a10.17,10.17,0,0,1-5.54,1.08q-5.6-.39-8.08-3.89T351,232.5l56.54-29.88q.14,6.39,2.63,9.9t8.08,3.88a10.08,10.08,0,0,0,5.54-1.07"/></g></g></g><polygon class="cls-3" points="407.51 202.62 350.97 232.5 345.38 232.77 401.92 202.89 407.51 202.62"/><g class="cls-2"><g class="cls-71"><g class="cls-2"><path class="cls-10" d="M393.61,189.36l-56.53,29.88a27.4,27.4,0,0,1-.55-5.31,23.91,23.91,0,0,1,8.39-18.63,23.38,23.38,0,0,1,4.46-3.06l56.54-29.89a23.63,23.63,0,0,0-4.47,3.07,23.94,23.94,0,0,0-8.39,18.63,27.4,27.4,0,0,0,.55,5.31"/></g></g></g><g class="cls-2"><g class="cls-72"><g class="cls-2"><path class="cls-6" d="M426.82,220l-56.53,29.88a16.18,16.18,0,0,1-8.84,1.61q-7.56-.53-11.77-5.39t-4.3-13.37l56.53-29.88q.09,8.54,4.3,13.37T418,221.65a16.17,16.17,0,0,0,8.84-1.61"/></g></g></g><path class="cls-31" d="M421.09,173.31a16.07,16.07,0,0,1,10.31,4.38,13.81,13.81,0,0,1,2.31,2.86,14.46,14.46,0,0,1,2,7.21L431,188l-.77,0a10.89,10.89,0,0,0-2.55-6.66,9.31,9.31,0,0,0-6.75-3,9.12,9.12,0,0,0-6.58,1.73,6.26,6.26,0,0,0-2.5,5.08,5.14,5.14,0,0,0,1.86,4q1.85,1.62,8.66,4.9a37.19,37.19,0,0,1,7,4.2,15,15,0,0,1,2.06,1.94,11.05,11.05,0,0,1,2.63,7.44,13.59,13.59,0,0,1-2.7,8.51,15.15,15.15,0,0,1-1.72,1.89q-4.44,4.08-11.63,3.58-7.56-.54-11.77-5.39t-4.3-13.37l5.6-.27q.14,6.39,2.63,9.9t8.08,3.88a9.79,9.79,0,0,0,7.31-2.27,8.27,8.27,0,0,0,3-6.64,6.59,6.59,0,0,0-1.82-4.49q-1.82-2-7.29-4.53-7.32-3.37-10.23-6.2a9.85,9.85,0,0,1-2.91-7.29,11,11,0,0,1,4-8.63Q414.35,172.84,421.09,173.31Z"/><polygon class="cls-4" points="388.67 202.08 332.14 231.96 332.01 219.48 388.54 189.6 388.67 202.08"/><g class="cls-2"><g class="cls-73"><g class="cls-2"><path class="cls-10" d="M433.46,232.51l-56.53,29.88a28.43,28.43,0,0,1-15.44,3,30.26,30.26,0,0,1-21.33-10.29c-5.23-6-7.93-13.82-8-23.14l56.53-29.88c.09,9.32,2.79,17.1,8,23.14A30.22,30.22,0,0,0,418,235.51a28.43,28.43,0,0,0,15.44-3"/></g></g></g><path class="cls-7" d="M439.93,167.71c.66.63,1.29,1.28,1.88,2a32.67,32.67,0,0,0-3,3,33.2,33.2,0,0,0-5.1,7.88,13.81,13.81,0,0,0-2.31-2.86,16.07,16.07,0,0,0-10.31-4.38q-6.73-.47-10.76,3a11,11,0,0,0-4,8.63,9.85,9.85,0,0,0,2.91,7.29q2.91,2.83,10.23,6.2,5.48,2.52,7.29,4.53a6.59,6.59,0,0,1,1.82,4.49,8.27,8.27,0,0,1-3,6.64,9.79,9.79,0,0,1-7.31,2.27q-5.6-.39-8.08-3.88t-2.63-9.9l-5.6.27q.09,8.54,4.3,13.37T418,221.65q7.2.49,11.63-3.58a15.15,15.15,0,0,0,1.72-1.89,35.28,35.28,0,0,0,5.15,10,33.6,33.6,0,0,0,2.16,2.65c-5.38,4.91-12.51,7.21-20.62,6.65a30.22,30.22,0,0,1-21.32-10.29c-5.24-6-7.94-13.82-8-23.14l-.13-12.48,5.07-.24a27.4,27.4,0,0,1-.55-5.31,23.94,23.94,0,0,1,8.39-18.63c3.55-3.1,9.84-6.65,19.6-6A30.06,30.06,0,0,1,439.93,167.71Z"/></g><g class="cls-2"><polygon class="cls-3" points="370.06 198.26 313.53 228.15 312.98 228.17 369.51 198.29 370.06 198.26"/><g class="cls-2"><g class="cls-74"><g class="cls-2"><path class="cls-10" d="M356.66,184.7l-56.53,29.88a18,18,0,0,0-4-11.75A13.93,13.93,0,0,0,286,197.7a14.37,14.37,0,0,0-7.89,1.63l56.53-29.88a14.37,14.37,0,0,1,7.89-1.63,14,14,0,0,1,10.12,5.12,18,18,0,0,1,4,11.76"/></g></g></g><polygon class="cls-29" points="356.66 184.7 300.13 214.58 294.6 214.72 351.13 184.84 356.66 184.7"/><polygon class="cls-4" points="356 198.15 299.47 228.04 300.1 223.69 356.63 193.81 356 198.15"/><g class="cls-2"><g class="cls-75"><g class="cls-2"><path class="cls-6" d="M351.13,184.84,294.6,214.72q-.68-11.22-9-11.8a9,9,0,0,0-4.9,1l56.53-29.88a9,9,0,0,1,4.9-1q8.33.59,9,11.8"/></g></g></g><g class="cls-2"><g class="cls-76"><g class="cls-2"><path class="cls-10" d="M331.73,155.34,275.2,185.22a27,27,0,0,0-3.73,1.62L328,157a26.4,26.4,0,0,1,3.72-1.62"/></g></g></g><polygon class="cls-3" points="356.63 193.81 300.1 223.69 283.69 222.55 340.22 192.66 356.63 193.81"/><polygon class="cls-29" points="350.28 198.49 293.75 228.37 282.81 227.6 339.35 197.72 350.28 198.49"/><polygon class="cls-6" points="339.35 197.72 282.81 227.6 283.69 222.55 340.22 192.66 339.35 197.72"/><g class="cls-2"><g class="cls-77"><g class="cls-2"><path class="cls-10" d="M346.3,214.5l-56.53,29.89a15.16,15.16,0,0,0,3.76-2.87q4.75-4.92,5.94-13.48L356,198.15q-1.19,8.57-5.94,13.49a14.7,14.7,0,0,1-3.76,2.86"/></g></g></g><g class="cls-2"><g class="cls-78"><g class="cls-2"><path class="cls-6" d="M343.68,209.61,287.15,239.5a10,10,0,0,0,2.62-2.06,17,17,0,0,0,4-9.07l56.53-29.88a17,17,0,0,1-4,9.06,9.42,9.42,0,0,1-2.62,2.06"/></g></g></g><g class="cls-2"><g class="cls-79"><g class="cls-2"><path class="cls-10" d="M315.94,168.41l-56.53,29.88a35.85,35.85,0,0,1,2.21-3.08,31.56,31.56,0,0,1,9.85-8.37L328,157a31.58,31.58,0,0,0-9.86,8.37,35.85,35.85,0,0,0-2.21,3.08"/></g></g></g><polygon class="cls-4" points="315.94 168.41 259.41 198.29 259.65 196.85 316.18 166.97 315.94 168.41"/><polygon class="cls-3" points="316.18 166.97 259.65 196.85 254.62 196.5 311.15 166.62 316.18 166.97"/><g class="cls-2"><g class="cls-80"><g class="cls-2"><path class="cls-10" d="M343.68,209.61,287.15,239.5a9.63,9.63,0,0,1-5.26,1,9.22,9.22,0,0,1-7.35-4.64L331.07,206a9.22,9.22,0,0,0,7.35,4.64,9.52,9.52,0,0,0,5.26-1"/></g></g></g><g class="cls-2"><g class="cls-81"><g class="cls-2"><path class="cls-10" d="M331.07,206l-56.53,29.88q-2.79-4.32-2.8-11.24,0-9.51,4-15.81a13.69,13.69,0,0,1,4.93-4.88l56.54-29.88a13.55,13.55,0,0,0-4.94,4.88q-4.05,6.3-4,15.81,0,6.93,2.8,11.24"/></g></g></g><g class="cls-2"><g class="cls-82"><g class="cls-2"><path class="cls-6" d="M346.3,214.5l-56.53,29.89a15.47,15.47,0,0,1-19.39-4.79q-4.26-5.85-4.29-15,0-12.64,5.91-20.07a19.86,19.86,0,0,1,6.08-5.24l56.53-29.88a19.68,19.68,0,0,0-6.07,5.23q-6,7.44-5.92,20.08,0,9.11,4.29,15a15.44,15.44,0,0,0,19.39,4.78"/></g></g></g><g class="cls-2"><g class="cls-83"><g class="cls-2"><path class="cls-10" d="M352.91,227l-56.53,29.88a26.92,26.92,0,0,1-14.62,2.93A28.16,28.16,0,0,1,264,252.06a32.46,32.46,0,0,1-3.95-4.5,37,37,0,0,1-6.41-14.93l56.53-29.89a36.9,36.9,0,0,0,6.41,14.93,32,32,0,0,0,3.95,4.51,28.23,28.23,0,0,0,17.73,7.75A26.9,26.9,0,0,0,352.91,227"/></g></g></g><path class="cls-7" d="M372,181l-2,13.76,0,3.48-.55,0-.4,2.86c-1.18,8.46-4.35,15.46-9.42,20.71a26.33,26.33,0,0,1-21.4,8.07,28.23,28.23,0,0,1-17.73-7.75,32,32,0,0,1-3.95-4.51,36.9,36.9,0,0,1-6.41-14.93l5.74-34.33a35.85,35.85,0,0,1,2.21-3.08,29.79,29.79,0,0,1,13.58-10A26.92,26.92,0,0,1,342.46,154a28,28,0,0,1,19.83,10.21,32.61,32.61,0,0,1,7.28,16.68Zm-40.92,25q-2.79-4.32-2.8-11.24,0-9.51,4-15.81c2.7-4.2,6-6.17,9.84-5.9q8.33.59,9,11.8l5.53-.14a18,18,0,0,0-4-11.76,14,14,0,0,0-10.12-5.12q-8-.57-14,6.86t-5.92,20.08q0,9.11,4.29,15a14.73,14.73,0,0,0,11.34,6.35,14.26,14.26,0,0,0,11.81-4.43q4.76-4.92,5.94-13.49l.63-4.34-16.41-1.14-.87,5.05,10.93.77a17,17,0,0,1-4,9.06A9.51,9.51,0,0,1,331.07,206"/><path class="cls-31" d="M342.5,167.82a14,14,0,0,1,10.12,5.12,18,18,0,0,1,4,11.76l-5.53.14q-.66-11.22-9-11.8c-3.87-.27-7.14,1.7-9.84,5.9s-4.05,9.47-4,15.81q0,6.93,2.8,11.24a9.51,9.51,0,0,0,15.23,1.56,17,17,0,0,0,4-9.06l-10.93-.77.87-5.05,16.41,1.14-.63,4.34q-1.19,8.57-5.94,13.49a14.26,14.26,0,0,1-11.81,4.43,14.73,14.73,0,0,1-11.34-6.35q-4.26-5.85-4.29-15,0-12.64,5.92-20.08T342.5,167.82Z"/><polygon class="cls-4" points="310.2 202.74 253.67 232.63 259.41 198.29 315.94 168.41 310.2 202.74"/><polygon class="cls-3" points="293.1 165.36 236.57 195.24 230.85 194.84 287.38 164.96 293.1 165.36"/><polygon class="cls-26" points="304.91 204.16 248.38 234.04 248.29 233.77 304.82 203.89 304.91 204.16"/><polygon class="cls-6" points="304.78 204.15 248.25 234.03 254.62 196.5 311.15 166.62 304.78 204.15"/><polygon class="cls-26" points="236.57 195.24 293.1 165.36 304.82 203.89 248.29 233.77 236.57 195.24"/><polygon class="cls-4" points="308.49 212.99 251.96 242.88 253.67 232.63 310.2 202.74 308.49 212.99"/><polygon class="cls-28" points="302.77 212.59 246.24 242.47 234.62 203.68 291.15 173.8 302.77 212.59"/><polygon class="cls-29" points="308.49 212.99 251.96 242.88 246.24 242.47 302.77 212.59 308.49 212.99"/><polygon class="cls-4" points="284.78 211.34 228.24 241.22 234.49 203.67 291.02 173.79 284.78 211.34"/><polygon class="cls-6" points="279.69 210.98 223.16 240.86 230.85 194.84 287.38 164.96 279.69 210.98"/><polygon class="cls-29" points="284.78 211.34 228.24 241.22 223.16 240.86 279.69 210.98 284.78 211.34"/><polygon class="cls-4" points="263.95 223.73 207.42 253.62 219.68 180.2 276.21 150.32 263.95 223.73"/><polygon class="cls-4" points="272.96 168.94 216.43 198.82 217.24 193.89 273.77 164.01 272.96 168.94"/><polygon class="cls-3" points="273.77 164.01 217.24 193.89 190.54 192.02 247.07 162.14 273.77 164.01"/><polygon class="cls-29" points="272.96 168.94 216.43 198.82 205.75 198.07 262.28 168.19 272.96 168.94"/><polygon class="cls-31" points="316.18 166.97 315.94 168.41 310.2 202.74 308.49 212.99 302.77 212.59 291.15 173.8 284.78 211.34 279.69 210.98 287.38 164.96 293.1 165.36 304.78 204.15 311.15 166.62 316.18 166.97"/><polygon class="cls-3" points="319.65 227.63 263.12 257.51 220.73 254.55 277.26 224.66 319.65 227.63"/><polygon class="cls-29" points="256.87 167.81 200.34 197.69 189.73 196.95 246.26 167.07 256.87 167.81"/><polygon class="cls-6" points="246.26 167.07 189.73 196.95 190.54 192.02 247.07 162.14 246.26 167.07"/><polygon class="cls-4" points="266.08 210.03 209.55 239.91 210.36 234.97 266.89 205.09 266.08 210.03"/><polygon class="cls-3" points="234.22 161.24 177.69 191.12 177.09 191.08 233.62 161.2 234.22 161.24"/><polygon class="cls-4" points="233.62 161.2 177.09 191.08 179.35 177.38 235.88 147.5 233.62 161.2"/><polygon class="cls-3" points="266.89 205.09 210.36 234.97 199.68 234.22 256.21 204.34 266.89 205.09"/><polygon class="cls-4" points="256.21 204.34 199.68 234.22 205.75 198.07 262.28 168.19 256.21 204.34"/><polygon class="cls-3" points="277.26 224.66 220.73 254.55 207.42 253.62 263.95 223.73 277.26 224.66"/><path class="cls-7" d="M331.92,154.22l-.19,1.12a29.79,29.79,0,0,0-13.58,10,35.85,35.85,0,0,0-2.21,3.08l.24-1.44-5-.35-6.25,37.54-11.81-38.8-5.72-.4-7.69,46,5.09.36L291,173.79l11.75,38.8,5.72.4,1.71-10.25a36.9,36.9,0,0,0,6.41,14.93,32,32,0,0,0,3.95,4.51l-.91,5.45-42.39-3L264,223.73l12.26-73.41Z"/><polygon class="cls-6" points="250.8 203.97 194.27 233.85 200.34 197.69 256.87 167.81 250.8 203.97"/><polygon class="cls-3" points="233.62 161.2 177.09 191.08 170.32 190.61 226.85 160.72 233.62 161.2"/><polygon class="cls-4" points="239.66 189.33 183.12 219.21 184.59 210.45 241.12 180.56 239.66 189.33"/><polygon class="cls-3" points="241.12 180.56 184.59 210.45 174.58 209.75 231.11 179.86 241.12 180.56"/><polygon class="cls-4" points="231.11 179.86 174.58 209.75 177.69 191.12 234.22 161.24 231.11 179.86"/><polygon class="cls-3" points="250.8 203.97 194.27 233.85 183.65 233.1 240.18 203.22 250.8 203.97"/><polygon class="cls-3" points="239.66 189.33 183.12 219.21 173.11 218.51 229.64 188.63 239.66 189.33"/><polygon class="cls-29" points="266.08 210.03 209.55 239.91 182.84 238.04 239.37 208.16 266.08 210.03"/><polygon class="cls-6" points="239.37 208.16 182.84 238.04 183.65 233.1 240.18 203.22 239.37 208.16"/><polygon class="cls-4" points="226.53 207.26 170 237.14 173.11 218.51 229.64 188.63 226.53 207.26"/><polygon class="cls-29" points="226.53 207.26 170 237.14 169.4 237.1 225.93 207.22 226.53 207.26"/><path class="cls-7" d="M235.88,147.5l40.33,2.82L264,223.73l-26.26-1.83-14-1,2.26-13.7.6,0,3.11-18.63,10,.7,1.46-8.77-10-.7,3.11-18.62-.6,0Zm31,57.59-10.68-.75,6.07-36.15,10.68.75.81-4.93-26.7-1.87-.81,4.93,10.61.74L250.8,204l-10.62-.75-.81,4.94L266.08,210l.81-4.94"/><polygon class="cls-4" points="229.64 188.63 173.11 218.51 174.58 209.75 231.11 179.86 229.64 188.63"/><polygon class="cls-7" points="231.11 179.86 241.12 180.56 239.66 189.33 229.64 188.63 231.11 179.86"/><polygon class="cls-31" points="273.77 164.01 272.96 168.94 262.28 168.19 256.21 204.34 266.89 205.09 266.08 210.03 239.37 208.16 240.18 203.22 250.8 203.97 256.87 167.81 246.26 167.07 247.07 162.14 273.77 164.01"/><polygon class="cls-3" points="263.95 223.73 207.42 253.62 181.16 251.78 237.69 221.9 263.95 223.73"/><polygon class="cls-3" points="211.14 159.63 154.61 189.51 147.55 189.01 204.09 159.13 211.14 159.63"/><polygon class="cls-6" points="221.82 206.93 165.29 236.81 171.79 197.69 228.33 167.81 221.82 206.93"/><polygon class="cls-10" points="213.79 197.33 157.26 227.21 171.67 197.68 228.2 167.8 213.79 197.33"/><polygon class="cls-6" points="214.71 185.62 158.18 215.5 170.32 190.61 226.85 160.72 214.71 185.62"/><polygon class="cls-26" points="214.84 185.63 158.31 215.51 154.61 189.51 211.14 159.63 214.84 185.63"/><polygon class="cls-4" points="192.22 148.69 135.69 178.57 136.39 174.38 192.92 144.5 192.22 148.69"/><polygon class="cls-29" points="225.93 207.22 169.4 237.1 165.29 236.81 221.82 206.93 225.93 207.22"/><polygon class="cls-29" points="213.79 197.33 157.26 227.21 155.6 227.09 212.14 197.21 213.79 197.33"/><polygon class="cls-84" points="212.14 197.21 155.6 227.09 151.32 196.26 207.85 166.38 212.14 197.21"/><polygon class="cls-4" points="223.67 220.92 167.14 250.8 169.4 237.1 225.93 207.22 223.67 220.92"/><polygon class="cls-3" points="237.69 221.9 181.16 251.78 167.14 250.8 223.67 220.92 237.69 221.9"/><polygon class="cls-4" points="189.34 165.91 132.81 195.79 135.69 178.57 192.22 148.69 189.34 165.91"/><polygon class="cls-4" points="201.09 205.48 144.56 235.37 151.19 196.25 207.72 166.37 201.09 205.48"/><polygon class="cls-6" points="196.39 205.16 139.86 235.04 147.55 189.01 204.09 159.13 196.39 205.16"/><polygon class="cls-31" points="234.22 161.24 231.11 179.86 229.64 188.63 226.53 207.26 225.93 207.22 221.82 206.93 228.33 167.81 213.79 197.33 212.14 197.21 207.85 166.38 201.09 205.48 196.39 205.16 204.09 159.13 211.14 159.63 214.71 185.62 226.85 160.72 233.62 161.2 234.22 161.24"/><polygon class="cls-29" points="201.09 205.48 144.56 235.37 139.86 235.04 196.39 205.16 201.09 205.48"/><g class="cls-2"><g class="cls-85"><g class="cls-2"><path class="cls-10" d="M189.34,165.91l-56.53,29.88a20.68,20.68,0,0,0-2-3.39,14.52,14.52,0,0,0-18.29-4.93q-.39.18-.78.39L168.3,158l.78-.38a14.52,14.52,0,0,1,18.29,4.93,20.28,20.28,0,0,1,2,3.39"/></g></g></g><g class="cls-2"><g class="cls-86"><g class="cls-2"><path class="cls-10" d="M183.67,199.82,127.14,229.7a22.13,22.13,0,0,0,1.64-1.7,24.43,24.43,0,0,0,4.59-8.65,39.22,39.22,0,0,0,1.71-12.06,27.49,27.49,0,0,0-2.27-11.5l56.53-29.88a27.49,27.49,0,0,1,2.27,11.5,39.22,39.22,0,0,1-1.71,12.06,24.43,24.43,0,0,1-4.59,8.65,22.13,22.13,0,0,1-1.64,1.7"/></g></g></g><g class="cls-2"><g class="cls-87"><g class="cls-2"><path class="cls-6" d="M181.89,193.33l-56.53,29.88q4.08-6.14,4.06-16c0-4.69-.89-8.48-2.61-11.35a8.81,8.81,0,0,0-7.23-4.63,9.26,9.26,0,0,0-5.08,1.06L171,162.43a9.18,9.18,0,0,1,5.08-1.06,8.84,8.84,0,0,1,7.24,4.63q2.58,4.31,2.6,11.35,0,9.85-4.06,16"/></g></g></g><polygon class="cls-4" points="180.73 217.42 124.2 247.3 127.14 229.7 183.67 199.82 180.73 217.42"/><g class="cls-2"><g class="cls-88"><g class="cls-2"><path class="cls-10" d="M179.63,202.72,123.1,232.6a18.7,18.7,0,0,0,4-2.9l56.53-29.88a18.8,18.8,0,0,1-4,2.9"/></g></g></g><g class="cls-2"><g class="cls-89"><g class="cls-2"><path class="cls-6" d="M177.05,198,120.52,227.9a13.66,13.66,0,0,0,4.84-4.69l56.53-29.88a13.66,13.66,0,0,1-4.84,4.69"/></g></g></g><polygon class="cls-4" points="180.65 217.91 124.11 247.79 124.2 247.3 180.73 217.42 180.65 217.91"/><polygon class="cls-3" points="223.67 220.92 167.14 250.8 124.11 247.79 180.65 217.91 223.67 220.92"/><path class="cls-7" d="M221.82,206.93l4.11.29-2.26,13.7-43-3,.08-.49,2.94-17.6a22.13,22.13,0,0,0,1.64-1.7,24.43,24.43,0,0,0,4.59-8.65,39.22,39.22,0,0,0,1.71-12.06,27.49,27.49,0,0,0-2.27-11.5l2.88-17.22.7-4.19,43,3-2.26,13.7-6.77-.47-12,24.9-3.7-26-7-.5-7.7,46,4.7.32,6.63-39.11,4.42,30.84,1.65.12L228.2,167.8Z"/><g class="cls-2"><g class="cls-90"><g class="cls-2"><path class="cls-10" d="M147.83,160,91.3,189.9a32.5,32.5,0,0,1,4.85-7.36,37.09,37.09,0,0,1,3.34-3.3,31.37,31.37,0,0,1,5.71-3.9l56.53-29.88a31,31,0,0,0-5.7,3.9,35.92,35.92,0,0,0-3.35,3.3,33.19,33.19,0,0,0-4.85,7.36"/></g></g></g><g class="cls-2"><g class="cls-91"><g class="cls-2"><path class="cls-10" d="M177.05,198,120.52,227.9a9.26,9.26,0,0,1-5,1,9.11,9.11,0,0,1-7.45-4.55q-2.61-4.2-2.64-11.26,0-9.84,4.16-16.07a14,14,0,0,1,4.94-4.75L171,162.43a14,14,0,0,0-4.94,4.75q-4.18,6.24-4.15,16.07,0,7.06,2.63,11.26a9.11,9.11,0,0,0,7.45,4.55,9.24,9.24,0,0,0,5-1"/></g></g></g><path class="cls-7" d="M176.11,161.37a8.84,8.84,0,0,1,7.24,4.63q2.58,4.31,2.6,11.35,0,9.85-4.06,16T172,199.06a9.11,9.11,0,0,1-7.45-4.55q-2.61-4.2-2.63-11.26,0-9.84,4.15-16.07C168.87,163,172.22,161.1,176.11,161.37Z"/><g class="cls-2"><g class="cls-92"><g class="cls-2"><path class="cls-6" d="M179.63,202.72,123.1,232.6c-.21.11-.42.22-.64.32a13.91,13.91,0,0,1-7,1.41,14.83,14.83,0,0,1-11.36-6.25q-4.24-5.76-4.27-15A39.2,39.2,0,0,1,101.52,201a24,24,0,0,1,4.62-8.66,20.09,20.09,0,0,1,5.63-4.51L168.3,158a20.31,20.31,0,0,0-5.63,4.52,23.88,23.88,0,0,0-4.61,8.66,38.89,38.89,0,0,0-1.72,12q0,9.24,4.27,15A14.79,14.79,0,0,0,172,204.44a13.78,13.78,0,0,0,7-1.4l.64-.32"/></g></g></g><g class="cls-2"><g class="cls-93"><g class="cls-2"><path class="cls-10" d="M150.77,170.7,94.24,200.58A18.42,18.42,0,0,0,91.3,189.9L147.83,160a18.42,18.42,0,0,1,2.94,10.68"/></g></g></g><g class="cls-2"><g class="cls-94"><g class="cls-2"><path class="cls-10" d="M147.83,160,91.3,189.9a16.75,16.75,0,0,0-1-1.36,14.23,14.23,0,0,0-10.37-5.25,13.94,13.94,0,0,0-7.7,1.59L128.73,155a14,14,0,0,1,7.7-1.59,14.23,14.23,0,0,1,10.37,5.25,16.75,16.75,0,0,1,1,1.36"/></g></g></g><path class="cls-31" d="M189.34,165.91a27.49,27.49,0,0,1,2.27,11.5,39.22,39.22,0,0,1-1.71,12.06,24.43,24.43,0,0,1-4.59,8.65,22.13,22.13,0,0,1-1.64,1.7A18.72,18.72,0,0,1,179,203a13.78,13.78,0,0,1-7,1.4,14.79,14.79,0,0,1-11.36-6.24q-4.25-5.76-4.27-15a38.89,38.89,0,0,1,1.72-12,23.88,23.88,0,0,1,4.61-8.66,19.69,19.69,0,0,1,6.41-4.9,14.52,14.52,0,0,1,18.29,4.93A20.28,20.28,0,0,1,189.34,165.91Zm-7.45,27.42q4.1-6.14,4.06-16,0-7-2.6-11.35a8.84,8.84,0,0,0-7.24-4.63c-3.89-.27-7.24,1.66-10,5.81s-4.17,9.51-4.15,16.07q0,7.06,2.63,11.26a9.11,9.11,0,0,0,7.45,4.55q5.79.41,9.87-5.73"/><polygon class="cls-29" points="150.78 170.7 94.24 200.58 88.72 200.66 145.25 170.78 150.78 170.7"/><g class="cls-2"><g class="cls-95"><g class="cls-2"><path class="cls-6" d="M145.25,170.78,88.72,200.66a20.35,20.35,0,0,0-.31-3.11,14.48,14.48,0,0,0-2-5.36,8.08,8.08,0,0,0-6.71-3.73,8.67,8.67,0,0,0-4.75,1l56.53-29.89a8.67,8.67,0,0,1,4.75-1,8.11,8.11,0,0,1,6.72,3.73,14.84,14.84,0,0,1,2,5.36,21.58,21.58,0,0,1,.3,3.11"/></g></g></g><polygon class="cls-3" points="148.85 186.47 92.32 216.35 86.85 214.43 143.38 184.55 148.85 186.47"/><g class="cls-2"><g class="cls-96"><g class="cls-2"><path class="cls-10" d="M145.11,195.9,88.58,225.79a22.92,22.92,0,0,0,3.74-9.44l56.53-29.88a22.82,22.82,0,0,1-3.74,9.43"/></g></g></g><g class="cls-2"><g class="cls-97"><g class="cls-2"><path class="cls-6" d="M137,195.44,80.47,225.32A8.34,8.34,0,0,0,83,223.24a18.8,18.8,0,0,0,3.68-8q.09-.41.18-.84l56.53-29.88c-.06.28-.12.57-.18.84a18.91,18.91,0,0,1-3.67,8,8.49,8.49,0,0,1-2.53,2.08"/></g></g></g><g class="cls-2"><g class="cls-98"><g class="cls-2"><path class="cls-10" d="M143.2,185.39,86.67,215.27c-.07-1-.1-2.06-.1-3.12a54.07,54.07,0,0,1,1.84-14.6L145,167.67a53.62,53.62,0,0,0-1.85,14.6c0,1.06,0,2.1.1,3.12"/></g></g></g><g class="cls-2"><g class="cls-99"><g class="cls-2"><path class="cls-10" d="M180.73,217.42,124.2,247.3a25.39,25.39,0,0,1-8.72.88,28.52,28.52,0,0,1-19.6-9.56,32,32,0,0,1-2.06-2.53,35.51,35.51,0,0,1-5.24-10.3l56.53-29.89a35.44,35.44,0,0,0,5.24,10.31,32.2,32.2,0,0,0,2.06,2.52A28.49,28.49,0,0,0,172,218.3a25.62,25.62,0,0,0,8.72-.88"/></g></g></g><path class="cls-7" d="M176.25,142.34a27.65,27.65,0,0,1,16,6.35l-2.88,17.22a20.28,20.28,0,0,0-2-3.39,14.52,14.52,0,0,0-18.29-4.93,19.69,19.69,0,0,0-6.41,4.9,23.88,23.88,0,0,0-4.61,8.66,38.89,38.89,0,0,0-1.72,12q0,9.24,4.27,15A14.79,14.79,0,0,0,172,204.44a13.78,13.78,0,0,0,7-1.4,18.72,18.72,0,0,0,4.68-3.22l-2.94,17.6a25.62,25.62,0,0,1-8.72.88,28.49,28.49,0,0,1-19.6-9.57,32.2,32.2,0,0,1-2.06-2.52,35.44,35.44,0,0,1-5.24-10.31,22.82,22.82,0,0,0,3.74-9.43l-5.47-1.92c-.06.28-.12.57-.18.84-.07-1-.1-2.06-.1-3.12a53.62,53.62,0,0,1,1.85-14.6,21.58,21.58,0,0,1,.3,3.11l5.52-.08A18.42,18.42,0,0,0,147.83,160a33.19,33.19,0,0,1,4.85-7.36,35.92,35.92,0,0,1,3.35-3.3,30.79,30.79,0,0,1,7-4.53A26.55,26.55,0,0,1,176.25,142.34Z"/><g class="cls-2"><g class="cls-100"><g class="cls-2"><path class="cls-10" d="M140.32,200.18,83.78,230.06a12.8,12.8,0,0,0,2.91-2.1,15.73,15.73,0,0,0,1.89-2.17l56.53-29.89a15.25,15.25,0,0,1-1.89,2.18,13,13,0,0,1-2.9,2.1"/></g></g></g><g class="cls-2"><g class="cls-101"><g class="cls-2"><path class="cls-10" d="M146.94,212.66,90.41,242.54a26.68,26.68,0,0,1-14.54,2.87c-8.6-.6-16-4.78-21.47-12.1C49.53,226.78,47,218.84,47,209.72c0-11.6,2.82-21.22,8.5-28.59a31.13,31.13,0,0,1,10.08-8.76l56.53-29.88a31.24,31.24,0,0,0-10.08,8.76c-5.68,7.37-8.53,17-8.5,28.59,0,9.12,2.51,17.06,7.38,23.59,5.45,7.32,12.87,11.5,21.47,12.1a26.68,26.68,0,0,0,14.54-2.87"/></g></g></g><g class="cls-2"><g class="cls-102"><g class="cls-2"><path class="cls-10" d="M137,195.44,80.47,225.32a8,8,0,0,1-4.4.86q-4.51-.31-7.35-4.73a20.43,20.43,0,0,1-2.87-11.21q0-9.26,4.06-15.71A14,14,0,0,1,75,189.46l56.53-29.89a14.09,14.09,0,0,0-5.06,5.08q-4.08,6.47-4.06,15.7a20.53,20.53,0,0,0,2.87,11.22q2.84,4.41,7.35,4.73a8,8,0,0,0,4.4-.86"/></g></g></g><g class="cls-2"><g class="cls-103"><g class="cls-2"><path class="cls-6" d="M140.32,200.18,83.78,230.06a14.5,14.5,0,0,1-8,1.5,14.76,14.76,0,0,1-11.2-6.31q-4.35-5.82-4.37-14.6,0-12.78,5.8-20.35a19.16,19.16,0,0,1,6.14-5.42L128.73,155a19.15,19.15,0,0,0-6.14,5.42q-5.84,7.56-5.8,20.35,0,8.78,4.37,14.6a14.76,14.76,0,0,0,11.2,6.31,14.52,14.52,0,0,0,8-1.5"/></g></g></g><path class="cls-31" d="M136.43,153.41a14.23,14.23,0,0,1,10.37,5.25,16.75,16.75,0,0,1,1,1.36,18.42,18.42,0,0,1,2.94,10.68l-5.52.08a21.58,21.58,0,0,0-.3-3.11,14.84,14.84,0,0,0-2-5.36,8.11,8.11,0,0,0-6.72-3.73q-5.72-.39-9.81,6.07t-4.06,15.7a20.53,20.53,0,0,0,2.87,11.22q2.84,4.41,7.35,4.73a7.87,7.87,0,0,0,6.93-2.94,18.91,18.91,0,0,0,3.67-8c.06-.27.12-.56.18-.84l5.47,1.92a22.82,22.82,0,0,1-3.74,9.43,15.25,15.25,0,0,1-1.89,2.18,13.66,13.66,0,0,1-10.86,3.6,14.76,14.76,0,0,1-11.2-6.31q-4.35-5.82-4.37-14.6,0-12.78,5.8-20.35T136.43,153.41Z"/><path class="cls-7" d="M143,162.31a14.84,14.84,0,0,1,2,5.36,53.62,53.62,0,0,0-1.85,14.6c0,1.06,0,2.1.1,3.12a18.91,18.91,0,0,1-3.67,8,7.87,7.87,0,0,1-6.93,2.94q-4.51-.31-7.35-4.73a20.53,20.53,0,0,1-2.87-11.22q0-9.24,4.06-15.7t9.81-6.07A8.11,8.11,0,0,1,143,162.31Z"/><g class="cls-2"><g class="cls-104"><g class="cls-2"><path class="cls-10" d="M146.94,212.66,90.41,242.54a26.68,26.68,0,0,1-14.54,2.87c-8.6-.6-16-4.78-21.47-12.1C49.53,226.78,47,218.84,47,209.72c0-11.6,2.82-21.22,8.5-28.59a31.13,31.13,0,0,1,10.08-8.76l56.53-29.88a31.24,31.24,0,0,0-10.08,8.76c-5.68,7.37-8.53,17-8.5,28.59,0,9.12,2.51,17.06,7.38,23.59,5.45,7.32,12.87,11.5,21.47,12.1a26.68,26.68,0,0,0,14.54-2.87"/></g></g></g><path class="cls-7" d="M136.39,139.55A28.28,28.28,0,0,1,156,149.36a35.92,35.92,0,0,0-3.35,3.3,33.19,33.19,0,0,0-4.85,7.36,16.75,16.75,0,0,0-1-1.36,14.23,14.23,0,0,0-10.37-5.25q-8-.57-13.84,7t-5.8,20.35q0,8.78,4.37,14.6a14.76,14.76,0,0,0,11.2,6.31,13.66,13.66,0,0,0,10.86-3.6,15.25,15.25,0,0,0,1.89-2.18,35.44,35.44,0,0,0,5.24,10.31,32.2,32.2,0,0,0,2.06,2.52,25.72,25.72,0,0,1-20,6.8c-8.6-.6-16-4.78-21.47-12.1-4.87-6.53-7.36-14.47-7.38-23.59,0-11.6,2.82-21.22,8.5-28.59C120.14,140.73,129.75,139.08,136.39,139.55Z"/></g></g></g></svg>