<?xml version="1.0" encoding="utf-8"?>
<!-- Generator: Adobe Illustrator 22.0.0, SVG Export Plug-In . SVG Version: 6.00 Build 0)  -->
<svg version="1.1" id="Layer_1" xmlns="http://www.w3.org/2000/svg" xmlns:xlink="http://www.w3.org/1999/xlink" x="0px" y="0px"
	 viewBox="0 0 27.2 19" style="enable-background:new 0 0 27.2 19;" xml:space="preserve">
<style type="text/css">
	.st0{fill:#F04665;}
	.st1{fill:#FFFFFF;}
	.st2{fill:none;stroke:#4C4C4C;stroke-miterlimit:10;}
	.st3{fill:#A39D9E;}
	.st4{display:none;}
	.st5{display:inline;fill:#A39D9E;}
	.st6{display:none;fill:none;stroke:#4C4C4C;stroke-miterlimit:10;}
	.st7{fill:none;}
</style>
<image style="overflow:visible;" width="2560" height="1040" xlink:href="FF3377C0.jpg"  transform="matrix(1 0 0 1 -2029.0002 -223.9696)">
</image>
<g>
	<g>
		<path class="st3" d="M20.5,5.5c0,0-18.5,0-18.5,0l3.9-4.4c0.3-0.3,0.2-0.7-0.1-1C5.5-0.1,5-0.1,4.8,0.2L0.4,5.1
			c-0.5,0.6-0.5,1.5,0,2.1l4.4,4.9c0.1,0.2,0.3,0.2,0.5,0.2c0.2,0,0.3-0.1,0.5-0.2c0.3-0.3,0.3-0.7,0.1-1L1.9,6.9c0,0,18.5,0,18.5,0
			c3,0,5.4,2.4,5.4,5.4s-2.4,5.4-5.4,5.4h-3.3c-0.4,0-0.7,0.3-0.7,0.7c0,0.4,0.3,0.7,0.7,0.7h3.3c3.7,0,6.8-3,6.8-6.8
			C27.2,8.5,24.2,5.5,20.5,5.5z"/>
	</g>
</g>
</svg>
