<?xml version="1.0" encoding="utf-8"?>
<!-- Generator: Adobe Illustrator 22.0.0, SVG Export Plug-In . SVG Version: 6.00 Build 0)  -->
<svg version="1.1" id="Layer_1" xmlns="http://www.w3.org/2000/svg" xmlns:xlink="http://www.w3.org/1999/xlink" x="0px" y="0px"
	 viewBox="0 0 20 19.7" style="enable-background:new 0 0 20 19.7;" xml:space="preserve">
<style type="text/css">
	.st0{fill:#F04665;}
	.st1{fill:#FFFFFF;}
	.st2{fill:none;stroke:#4C4C4C;stroke-miterlimit:10;}
	.st3{fill:#A39D9E;}
	.st4{display:none;}
	.st5{display:inline;fill:#A39D9E;}
	.st6{display:none;fill:none;stroke:#4C4C4C;stroke-miterlimit:10;}
	.st7{fill:none;}
</style>
<image style="overflow:visible;" width="2560" height="1040" xlink:href="15DC8999.jpg"  transform="matrix(1 0 0 1 -878 -334.1379)">
</image>
<g>
	<path class="st3" d="M14.8,1.4C14.6,0.6,13.9,0,13.1,0c-0.2,0-0.3,0.2-0.3,0.3s0.2,0.3,0.3,0.3c0.6,0,1,0.5,1,1s-0.5,1-1,1
		c-0.2,0-0.3,0.2-0.3,0.3s0.2,0.3,0.3,0.3c0.8,0,1.5-0.6,1.7-1.4h4.5v3.1H0.7V2.1h4.8h1c0.2,0,0.3-0.2,0.3-0.3S6.7,1.4,6.6,1.4H5.9
		c0.1-0.4,0.5-0.7,1-0.7c0.6,0,1,0.5,1,1s-0.5,1-1,1c-0.2,0-0.3,0.2-0.3,0.3s0.2,0.3,0.3,0.3c1,0,1.7-0.8,1.7-1.7S7.8,0,6.9,0
		C6.1,0,5.4,0.6,5.2,1.4H0v4.5v13.8h20V5.9V1.4H14.8z M19.3,19H0.7V5.9h18.6V19z"/>
	<path class="st3" d="M9,0.7c0.6,0,1,0.5,1,1s-0.5,1-1,1c-0.2,0-0.3,0.2-0.3,0.3S8.8,3.4,9,3.4c1,0,1.7-0.8,1.7-1.7S9.9,0,9,0
		C8.8,0,8.6,0.2,8.6,0.3S8.8,0.7,9,0.7z"/>
	<path class="st3" d="M11,0.7c0.6,0,1,0.5,1,1s-0.5,1-1,1c-0.2,0-0.3,0.2-0.3,0.3s0.2,0.3,0.3,0.3c1,0,1.7-0.8,1.7-1.7S12,0,11,0
		c-0.2,0-0.3,0.2-0.3,0.3S10.8,0.7,11,0.7z"/>
	<circle class="st3" cx="7.6" cy="8.3" r="0.3"/>
	<circle class="st3" cx="10" cy="8.3" r="0.3"/>
	<circle class="st3" cx="12.4" cy="8.3" r="0.3"/>
	<circle class="st3" cx="14.8" cy="8.3" r="0.3"/>
	<circle class="st3" cx="17.2" cy="8.3" r="0.3"/>
	<circle class="st3" cx="2.8" cy="11" r="0.3"/>
	<circle class="st3" cx="5.2" cy="11" r="0.3"/>
	<circle class="st3" cx="7.6" cy="11" r="0.3"/>
	<circle class="st3" cx="10" cy="11" r="0.3"/>
	<circle class="st3" cx="12.4" cy="11" r="0.3"/>
	<circle class="st3" cx="14.8" cy="11" r="0.3"/>
	<circle class="st3" cx="17.2" cy="11" r="0.3"/>
	<circle class="st3" cx="2.8" cy="13.4" r="0.3"/>
	<circle class="st3" cx="5.2" cy="13.4" r="0.3"/>
	<circle class="st3" cx="7.6" cy="13.4" r="0.3"/>
	<circle class="st3" cx="10" cy="13.4" r="0.3"/>
	<circle class="st3" cx="12.4" cy="13.4" r="0.3"/>
	<circle class="st3" cx="14.8" cy="13.4" r="0.3"/>
	<circle class="st3" cx="17.2" cy="13.4" r="0.3"/>
	<circle class="st3" cx="2.8" cy="16.2" r="0.3"/>
	<circle class="st3" cx="5.2" cy="16.2" r="0.3"/>
	<circle class="st3" cx="7.6" cy="16.2" r="0.3"/>
	<circle class="st3" cx="10" cy="16.2" r="0.3"/>
	<circle class="st3" cx="12.4" cy="16.2" r="0.3"/>
</g>
</svg>
