<?xml version="1.0" encoding="utf-8"?>
<!-- Generator: Adobe Illustrator 22.0.0, SVG Export Plug-In . SVG Version: 6.00 Build 0)  -->
<svg version="1.1" id="Layer_1" xmlns="http://www.w3.org/2000/svg" xmlns:xlink="http://www.w3.org/1999/xlink" x="0px" y="0px"
	 viewBox="0 0 21.5 21.5" style="enable-background:new 0 0 21.5 21.5;" xml:space="preserve">
<style type="text/css">
	.st0{fill:#F04665;}
	.st1{fill:#FFFFFF;}
	.st2{fill:none;stroke:#4C4C4C;stroke-miterlimit:10;}
	.st3{fill:#A39D9E;}
	.st4{display:none;}
	.st5{display:inline;fill:#A39D9E;}
	.st6{display:none;fill:none;stroke:#4C4C4C;stroke-miterlimit:10;}
	.st7{fill:none;}
</style>
<image style="overflow:visible;" width="2560" height="1040" xlink:href="A1BFE107.jpg"  transform="matrix(1 0 0 1 -877.5 -369.5)">
</image>
<g class="st4">
	<path class="st5" d="M16.2,11.6c0.4,0,0.7-0.2,0.9-0.5l3.3-4.6c0.1-0.1,0.1-0.3,0-0.5c-0.1-0.1-0.3-0.1-0.5,0l-4.6,3.3
		c-0.3,0.2-0.5,0.6-0.5,0.9s0.1,0.7,0.4,1c0.2,0.2,0.6,0.4,0.9,0.4C16.1,11.6,16.1,11.6,16.2,11.6z M15.5,10.3
		c0-0.2,0.1-0.3,0.2-0.4l2.8-2l-2,2.8c-0.1,0.1-0.2,0.2-0.4,0.2c-0.2,0-0.3,0-0.4-0.2C15.6,10.6,15.5,10.5,15.5,10.3z"/>
	<path class="st5" d="M24.2,5.1C24.2,5,24.2,5,24.2,5.1C24.2,5,24.2,5,24.2,5.1c-0.4-0.7-0.8-1.2-1.3-1.8l0.8-0.8L24.2,3l1.5-1.5
		L24.2,0l-1.5,1.5L23.1,2l-0.8,0.8c-0.5-0.5-1.1-0.9-1.7-1.3c0,0,0,0,0,0c0,0,0,0,0,0c-1.1-0.6-2.3-1.1-3.7-1.2v-0.4h0.5
		c0.5,0,0.9-0.4,0.9-0.9S18-1.9,17.5-1.9h-3.2c-0.5,0-0.9,0.4-0.9,0.9s0.4,0.9,0.9,0.9h0.5v0.4c-0.4,0-0.8,0.1-1.2,0.2
		c-0.2,0-0.3,0.2-0.3,0.4c0,0.2,0.2,0.3,0.4,0.3c0.3-0.1,0.7-0.1,1-0.2l0.4,0c0.1,0,0.2,0,0.3,0v0.7c0,0.2,0.2,0.4,0.4,0.4
		s0.4-0.2,0.4-0.4V0.9c1.3,0.1,2.6,0.4,3.7,1l-0.4,0.6c-0.1,0.2,0,0.4,0.1,0.5c0.1,0,0.1,0,0.2,0c0.1,0,0.2-0.1,0.3-0.2l0.4-0.6
		C21.7,3,22.7,4,23.4,5.1l-0.6,0.4c-0.2,0.1-0.2,0.3-0.1,0.5c0.1,0.1,0.2,0.2,0.3,0.2c0.1,0,0.1,0,0.2,0l0.6-0.4
		c0.6,1.1,1,2.4,1,3.8H24c-0.2,0-0.4,0.2-0.4,0.4c0,0.2,0.2,0.4,0.4,0.4h0.7c-0.1,1.4-0.4,2.7-1,3.8l-0.6-0.4
		c-0.2-0.1-0.4,0-0.5,0.1c-0.1,0.2,0,0.4,0.1,0.5l0.6,0.4c-0.7,1.1-1.7,2.1-2.8,2.8l-0.4-0.6c-0.1-0.2-0.3-0.2-0.5-0.1
		c-0.2,0.1-0.2,0.3-0.1,0.5l0.4,0.6c-1.1,0.6-2.4,1-3.7,1v-0.7c0-0.2-0.2-0.4-0.4-0.4c-0.2,0-0.4,0.2-0.4,0.4v0.7
		c-0.6,0-1.1-0.1-1.7-0.2c-0.2,0-0.4,0.1-0.4,0.3c0,0.2,0.1,0.4,0.3,0.4c0.7,0.2,1.4,0.2,2.2,0.2c0,0,0,0,0.1,0c0,0,0,0,0,0
		c0,0,0,0,0,0c1.7,0,3.3-0.5,4.7-1.3c0,0,0,0,0,0c0,0,0,0,0,0c1.4-0.8,2.6-2,3.5-3.5c0,0,0,0,0,0c0,0,0,0,0,0
		c0.8-1.4,1.3-3.1,1.3-4.8S25,6.5,24.2,5.1z M24.2,1l0.5,0.5L24.2,2l-0.5-0.5L24.2,1z M15.5,0.2v-1.1h-1.3c-0.1,0-0.2-0.1-0.2-0.2
		s0.1-0.2,0.2-0.2h3.2c0.1,0,0.2,0.1,0.2,0.2s-0.1,0.2-0.2,0.2h-1.3v1.1c-0.1,0-0.2,0-0.4,0c0,0,0,0,0,0c0,0,0,0,0,0
		c-0.1,0-0.1,0-0.2,0C15.6,0.2,15.6,0.2,15.5,0.2z"/>
	<path class="st5" d="M12.7,3.1h-1.8c-0.2,0-0.4,0.2-0.4,0.4c0,0.2,0.2,0.4,0.4,0.4h1.8c0.2,0,0.4-0.2,0.4-0.4
		C13,3.2,12.9,3.1,12.7,3.1z"/>
	<path class="st5" d="M12.7,5.6H9.1c-0.2,0-0.4,0.2-0.4,0.4s0.2,0.4,0.4,0.4h3.6c0.2,0,0.4-0.2,0.4-0.4S12.9,5.6,12.7,5.6z"/>
	<path class="st5" d="M12.7,8.1H7.3c-0.2,0-0.4,0.2-0.4,0.4s0.2,0.4,0.4,0.4h5.4c0.2,0,0.4-0.2,0.4-0.4S12.9,8.1,12.7,8.1z"/>
	<path class="st5" d="M12.7,10.6H5.9c-0.2,0-0.4,0.2-0.4,0.4s0.2,0.4,0.4,0.4h6.8c0.2,0,0.4-0.2,0.4-0.4S12.9,10.6,12.7,10.6z"/>
	<path class="st5" d="M12.7,13.1H8c-0.2,0-0.4,0.2-0.4,0.4s0.2,0.4,0.4,0.4h4.6c0.2,0,0.4-0.2,0.4-0.4S12.9,13.1,12.7,13.1z"/>
	<path class="st5" d="M12.7,15.6h-2.5c-0.2,0-0.4,0.2-0.4,0.4s0.2,0.4,0.4,0.4h2.5c0.2,0,0.4-0.2,0.4-0.4S12.9,15.6,12.7,15.6z"/>
</g>
<path class="st3" d="M3.1,21.5h7v-7.6H7.6v-2.5h2.5V8.2c0-1.7,1.4-3.1,3.1-3.1h3.1v2.5h-2.5c-0.7,0-1.3,0.6-1.3,1.3v2.5h3.7
	l-0.4,2.5h-3.2v7.6h5.7c1.7,0,3.1-1.4,3.1-3.1V3.1c0-1.7-1.4-3.1-3.1-3.1H3.1C1.4,0,0,1.4,0,3.1v15.2C0,20.1,1.4,21.5,3.1,21.5z
	 M1.3,3.1c0-1,0.8-1.9,1.9-1.9h15.2c1,0,1.9,0.8,1.9,1.9v15.2c0,1-0.8,1.9-1.9,1.9h-4.4v-5.1H17l0.8-5h-3.9V8.8h3.8v-5h-4.4
	c-2.4,0-4.4,2-4.4,4.4v1.9H6.4v5h2.5v5.1H3.1c-1,0-1.9-0.8-1.9-1.9V3.1z"/>
</svg>
