<?xml version="1.0" encoding="utf-8"?>
<!-- Generator: Adobe Illustrator 22.0.0, SVG Export Plug-In . SVG Version: 6.00 Build 0)  -->
<svg version="1.1" id="Layer_1" xmlns="http://www.w3.org/2000/svg" xmlns:xlink="http://www.w3.org/1999/xlink" x="0px" y="0px"
	 viewBox="0 0 21 21" style="enable-background:new 0 0 21 21;" xml:space="preserve">
<style type="text/css">
	.st0{fill:#F04665;}
	.st1{fill:#FFFFFF;}
	.st2{fill:none;stroke:#4C4C4C;stroke-miterlimit:10;}
	.st3{fill:#A39D9E;}
	.st4{display:none;}
	.st5{display:inline;fill:#A39D9E;}
	.st6{display:none;fill:none;stroke:#4C4C4C;stroke-miterlimit:10;}
	.st7{fill:none;}
</style>
<image style="overflow:visible;" width="2560" height="1040" xlink:href="2DA33875.jpg"  transform="matrix(1 0 0 1 -906.875 -369.875)">
</image>
<g>
	<path class="st3" d="M0,0v21h21V0H0z M19.3,19.3H1.7V1.7h17.6V19.3z"/>
	<path class="st3" d="M7.5,7.2c1.1,0,1.7,0.5,2.1,0.8L11,6.6c-0.9-0.9-2.1-1.4-3.6-1.4c-3,0-5.3,2.4-5.3,5.3c0,3,2.4,5.3,5.3,5.3
		c3,0,5.1-2.1,5.1-5.2c0-0.4,0-0.6-0.1-0.9h-5v1.8h3c-0.2,0.8-0.9,2.3-3,2.3c-1.8,0-3.3-1.5-3.3-3.3S5.6,7.2,7.5,7.2z"/>
	<path class="st3" d="M15.8,12.8h1.5v-1.5h1.5V9.7h-1.5V8.2h-1.5v1.5h-1.5v1.5h1.5V12.8z"/>
</g>
</svg>
