<?xml version="1.0" encoding="utf-8"?>
<!-- Generator: Adobe Illustrator 22.0.0, SVG Export Plug-In . SVG Version: 6.00 Build 0)  -->
<svg version="1.1" id="Layer_1" xmlns="http://www.w3.org/2000/svg" xmlns:xlink="http://www.w3.org/1999/xlink" x="0px" y="0px"
	 viewBox="0 0 21 21" style="enable-background:new 0 0 21 21;" xml:space="preserve">
<style type="text/css">
	.st0{fill:#F04665;}
	.st1{fill:#FFFFFF;}
	.st2{fill:none;stroke:#4C4C4C;stroke-miterlimit:10;}
	.st3{fill:#A39D9E;}
	.st4{display:none;}
	.st5{display:inline;fill:#A39D9E;}
	.st6{display:none;fill:none;stroke:#4C4C4C;stroke-miterlimit:10;}
	.st7{fill:none;}
</style>
<image style="overflow:visible;" width="2560" height="1040" xlink:href="5BCE354E.jpg"  transform="matrix(1 0 0 1 -936 -370)">
</image>
<g>
	<g id="post-twitter">
		<path class="st3" d="M18.9,0H2.1C0.9,0,0,0.9,0,2.1v16.8C0,20.1,0.9,21,2.1,21h16.8c1.2,0,2.1-0.9,2.1-2.1V2.1
			C21,0.9,20.1,0,18.9,0z M16.5,7.7c-0.1,4.8-3.2,8.2-7.8,8.4c-1.9,0.1-3.3-0.5-4.5-1.3c1.4,0.2,3.2-0.3,4.1-1.2
			c-1.4-0.1-2.2-0.8-2.6-2c0.4,0.1,0.8,0,1.2,0c-1.3-0.4-2.1-1.2-2.2-2.8C4.9,9,5.4,9.1,5.8,9.1C4.8,8.6,4.2,6.6,4.9,5.4
			c1.4,1.5,3,2.7,5.8,2.9C10,5.4,14,3.8,15.5,5.8c0.7-0.1,1.3-0.4,1.8-0.6c-0.2,0.7-0.6,1.2-1.2,1.6c0.5-0.1,1-0.2,1.5-0.4
			C17.5,6.8,17,7.2,16.5,7.7z"/>
	</g>
</g>
</svg>
