<?xml version="1.0" encoding="utf-8"?>
<!-- Generator: Adobe Illustrator 22.0.0, SVG Export Plug-In . SVG Version: 6.00 Build 0)  -->
<svg version="1.1" id="Layer_1" xmlns="http://www.w3.org/2000/svg" xmlns:xlink="http://www.w3.org/1999/xlink" x="0px" y="0px"
	 viewBox="0 0 1280 1024" style="enable-background:new 0 0 1280 1024;" xml:space="preserve">
<style type="text/css">
	.st0{fill:#F04665;}
	.st1{fill:#FFFFFF;}
	.st2{fill:none;stroke:#4C4C4C;stroke-miterlimit:10;}
	.st3{fill:#4C4C4C;}
	.st4{font-family:'Inconsolata';}
	.st5{font-size:48px;}
	.st6{letter-spacing:1.7;}
	.st7{font-family:'MaisonNeue-Bold';}
	.st8{letter-spacing:2;}
	.st9{fill:none;}
	.st10{font-size:14px;}
	.st11{fill:#A39D9E;}
	.st12{display:none;}
	.st13{display:inline;fill:#A39D9E;}
	.st14{display:none;fill:none;stroke:#4C4C4C;stroke-miterlimit:10;}
	.st15{font-size:11px;}
</style>
<image style="overflow:visible;" width="2560" height="1040" xlink:href="2DA33876.jpg"  transform="matrix(1 0 0 1 -596 -125)">
</image>
<g>
	<polygon class="st0" points="44.5,73 44.5,41.5 59.3,41.5 59.3,58.8 66.7,58.8 66.7,73 	"/>
	<polygon class="st0" points="61.9,73 61.9,41.5 84.1,41.5 84.1,55.7 83.8,55.7 83.8,58.8 84.1,58.8 84.1,73 	"/>
	<polygon class="st0" points="88.2,73 75,41.5 91.3,41.5 93.4,47 95.5,41.5 111.8,41.5 98.6,73 	"/>
	<polygon class="st0" points="102.9,73 102.9,41.5 125.1,41.5 125.1,55.7 124.8,55.7 124.8,58.8 125.1,58.8 125.1,73 	"/>
	<polygon class="st0" points="120.8,73 120.8,41.5 135.5,41.5 135.5,58.8 143,58.8 143,73 	"/>
	<path class="st0" d="M140.7,73l2.3-9.7c-2.7-2.2-4.6-5.6-4.6-9.9c0-8,6.5-12.3,12.9-12.3c7.6,0,13.5,5.4,13.5,12.3
		c0,5.2-1.7,7.9-4.4,11.5l-0.1,0.1l-6.7,7.9H140.7z"/>
	<polygon class="st0" points="162.6,73 162.6,62 159,64.4 159,47.8 168.7,41.5 177.4,41.5 177.4,73 	"/>
	<path class="st1" d="M54.4,63.8h7.4v4.3H49.4V46.5h4.9V63.8z"/>
	<path class="st1" d="M79.2,50.8h-7.4v4.3h7.1v4.3h-7.1v4.4h7.4v4.3H66.9V46.5h12.4V50.8z"/>
	<path class="st1" d="M82.4,46.5h5.6l5.5,14.2l5.5-14.2h5.6l-9.1,21.6h-3.9L82.4,46.5z"/>
	<path class="st1" d="M120.2,50.8h-7.4v4.3h7.1v4.3h-7.1v4.4h7.4v4.3h-12.4V46.5h12.4V50.8z"/>
	<path class="st1" d="M130.6,63.8h7.4v4.3h-12.4V46.5h4.9V63.8z"/>
	<path class="st1" d="M151.8,60.7c0,0-0.6,0.3-1.5,0.3c-3,0-6.9-2.5-6.9-7.6c0-5.1,4.1-7.3,8-7.3c4.8,0,8.6,3.2,8.6,7.3
		c0,3.8-1.2,5.6-3.4,8.6l-5.1,6.1h-6.1L151.8,60.7z M151.6,50.1c-1.9,0-3.3,1.4-3.3,3.3c0,1.9,1.5,3.4,3.3,3.4
		c1.8,0,3.3-1.4,3.3-3.4C154.8,51.5,153.5,50.1,151.6,50.1z"/>
	<path class="st1" d="M164,50.4l6.2-4h2.3v21.6h-4.9V53l-3.6,2.3V50.4z"/>
	<rect x="30" y="41.6" class="st0" width="12" height="12"/>
	<rect x="36" y="55.8" class="st0" width="6" height="6"/>
	<rect x="32.7" y="64.5" class="st0" width="3.3" height="3.3"/>
	<rect x="36" y="71.1" class="st0" width="1.6" height="1.6"/>
</g>
<g>
	<line class="st2" x1="-1" y1="117.5" x2="1279" y2="117.5"/>
</g>
<text transform="matrix(0.583 0 0 0.583 1157.5 68.8496)" class="st3 st4 st5 st6" style="text-decoration: underline;">blog</text>
<line class="st2" x1="219" y1="117" x2="219" y2="1024"/>
<text transform="matrix(1 0 0 1 279 188)" class="st3 st7 st5 st8">Lorem Ipsum</text>
<rect x="279" y="327" class="st9" width="940" height="674"/>
<text transform="matrix(1 0 0 1 279 336.3149)"><tspan x="0" y="0" class="st3 st4 st10">Lorem ipsum dolor sit amet, consectetuer adipiscing elit, sed diam nonummy nibh euismod tincidunt ut laoreet dolore magna </tspan><tspan x="0" y="24" class="st3 st4 st10">aliquam erat volutpat. Ut wisi enim ad minim veniam, quis nostrud exerci tation ullamcorper suscipit lobortis nisl ut </tspan><tspan x="0" y="48" class="st3 st4 st10">aliquip ex ea commodo consequat. Duis autem vel eum iriure dolor in hendrerit in vulputate velit esse molestie consequat, </tspan><tspan x="0" y="72" class="st3 st4 st10">vel illum dolore eu feugiat nulla facilisis at vero eros et accumsan et iusto odio dignissim qui blandit praesent luptatum </tspan><tspan x="0" y="96" class="st3 st4 st10">zzril delenit augue duis dolore te feugait nulla facilisi.</tspan><tspan x="0" y="120" class="st3 st4 st10">Lorem ipsum dolor sit amet, cons ectetuer adipiscing elit, sed diam nonummy nibh euismod tincidunt ut laoreet dolore magna </tspan><tspan x="0" y="144" class="st3 st4 st10">aliquam erat volutpat. Ut wisi enim ad minim veniam, quis nostrud exerci tation ullamcorper suscipit lobortis nisl ut </tspan><tspan x="0" y="168" class="st3 st4 st10">aliquip ex ea commodo consequat.</tspan><tspan x="0" y="192" class="st3 st4 st10">Lorem ipsum dolor sit amet, consectetuer adipiscing elit, sed diam nonummy nibh euismod tincidunt ut laoreet dolore magna </tspan><tspan x="0" y="216" class="st3 st4 st10">aliquam erat volutpat. Ut wisi enim ad minim veniam, quis nostrud exerci tation ullamcorper suscipit lobortis nisl ut </tspan><tspan x="0" y="240" class="st3 st4 st10">aliquip ex ea commodo consequat. Duis autem vel eum iriure dolor in hendrerit in vulputate velit esse molestie consequat, </tspan><tspan x="0" y="264" class="st3 st4 st10">vel illum dolore eu feugiat nulla facilisis at vero eros et accumsan et iusto odio dignissim qui blandit praesent luptatum </tspan><tspan x="0" y="288" class="st3 st4 st10">zzril delenit augue duis dolore te feugait nulla facilisi.</tspan><tspan x="0" y="312" class="st3 st4 st10">Lorem ipsum dolor sit amet, cons ectetuer adipiscing elit, sed diam nonummy nibh euismod tincidunt ut laoreet dolore magna </tspan><tspan x="0" y="336" class="st3 st4 st10">aliquam erat volutpat. Ut wisi enim ad minim veniam, quis nostrud exerci tation ullamcorper suscipit lobortis nisl ut </tspan><tspan x="0" y="360" class="st3 st4 st10">aliquip ex ea commodo consequat.</tspan><tspan x="0" y="384" class="st3 st4 st10">Lorem ipsum dolor sit amet, consectetuer adipiscing elit, sed diam nonummy nibh euismod tincidunt ut laoreet dolore magna </tspan><tspan x="0" y="408" class="st3 st4 st10">aliquam erat volutpat. Ut wisi enim ad minim veniam, quis nostrud exerci tation ullamcorper suscipit lobortis nisl ut </tspan><tspan x="0" y="432" class="st3 st4 st10">aliquip ex ea commodo consequat. Duis autem vel eum iriure dolor in hendrerit in vulputate velit esse molestie consequat, </tspan><tspan x="0" y="456" class="st3 st4 st10">vel illum dolore eu feugiat nulla facilisis at vero eros et accumsan et iusto odio dignissim qui blandit praesent luptatum </tspan><tspan x="0" y="480" class="st3 st4 st10">zzril delenit augue duis dolore te feugait nulla facilisi.</tspan><tspan x="0" y="504" class="st3 st4 st10">Lorem ipsum dolor sit amet, cons ectetuer adipiscing elit, sed diam nonummy nibh euismod tincidunt ut laoreet dolore magna </tspan><tspan x="0" y="528" class="st3 st4 st10">aliquam erat volutpat. Ut wisi enim ad minim veniam, quis nostrud exerci tation ullamcorper suscipit lobortis nisl ut </tspan><tspan x="0" y="552" class="st3 st4 st10">aliquip ex ea commodo consequat.</tspan><tspan x="0" y="576" class="st3 st4 st10">Lorem ipsum dolor sit amet, consectetuer adipiscing elit, sed diam nonummy nibh euismod tincidunt ut laoreet dolore magna </tspan><tspan x="0" y="600" class="st3 st4 st10">aliquam erat volutpat. Ut wisi enim ad minim veniam, quis nostrud exerci tation ullamcorper suscipit lobortis nisl ut </tspan><tspan x="0" y="624" class="st3 st4 st10">aliquip ex ea commodo consequat. Duis autem vel eum iriure dolor in hendrerit in vulputate velit esse molestie consequat, </tspan><tspan x="0" y="648" class="st3 st4 st10">vel illum dolore eu feugiat nulla facilisis at vero eros et accumsan et iusto odio dignissim qui blandit </tspan></text>
<g>
	<path class="st11" d="M296.8,210.5c-0.2-0.8-0.9-1.4-1.7-1.4c-0.2,0-0.3,0.2-0.3,0.3s0.2,0.3,0.3,0.3c0.6,0,1,0.5,1,1
		c0,0.6-0.5,1-1,1c-0.2,0-0.3,0.2-0.3,0.3s0.2,0.3,0.3,0.3c0.8,0,1.5-0.6,1.7-1.4h4.5v3.1h-18.6v-3.1h4.8h1c0.2,0,0.3-0.2,0.3-0.3
		s-0.2-0.3-0.3-0.3h-0.6c0.1-0.4,0.5-0.7,1-0.7c0.6,0,1,0.5,1,1c0,0.6-0.5,1-1,1c-0.2,0-0.3,0.2-0.3,0.3s0.2,0.3,0.3,0.3
		c1,0,1.7-0.8,1.7-1.7c0-1-0.8-1.7-1.7-1.7c-0.8,0-1.5,0.6-1.7,1.4H282v4.5v13.8h20V215v-4.5H296.8z M301.3,228.1h-18.6V215h18.6
		V228.1z"/>
	<path class="st11" d="M291,209.8c0.6,0,1,0.5,1,1c0,0.6-0.5,1-1,1c-0.2,0-0.3,0.2-0.3,0.3s0.2,0.3,0.3,0.3c1,0,1.7-0.8,1.7-1.7
		c0-1-0.8-1.7-1.7-1.7c-0.2,0-0.3,0.2-0.3,0.3S290.8,209.8,291,209.8z"/>
	<path class="st11" d="M293,209.8c0.6,0,1,0.5,1,1c0,0.6-0.5,1-1,1c-0.2,0-0.3,0.2-0.3,0.3s0.2,0.3,0.3,0.3c1,0,1.7-0.8,1.7-1.7
		c0-1-0.8-1.7-1.7-1.7c-0.2,0-0.3,0.2-0.3,0.3S292.8,209.8,293,209.8z"/>
	<circle class="st11" cx="289.6" cy="217.4" r="0.3"/>
	<circle class="st11" cx="292" cy="217.4" r="0.3"/>
	<circle class="st11" cx="294.4" cy="217.4" r="0.3"/>
	<circle class="st11" cx="296.8" cy="217.4" r="0.3"/>
	<circle class="st11" cx="299.2" cy="217.4" r="0.3"/>
	<circle class="st11" cx="284.8" cy="220.2" r="0.3"/>
	<circle class="st11" cx="287.2" cy="220.2" r="0.3"/>
	<circle class="st11" cx="289.6" cy="220.2" r="0.3"/>
	<circle class="st11" cx="292" cy="220.2" r="0.3"/>
	<circle class="st11" cx="294.4" cy="220.2" r="0.3"/>
	<circle class="st11" cx="296.8" cy="220.2" r="0.3"/>
	<circle class="st11" cx="299.2" cy="220.2" r="0.3"/>
	<circle class="st11" cx="284.8" cy="222.6" r="0.3"/>
	<circle class="st11" cx="287.2" cy="222.6" r="0.3"/>
	<circle class="st11" cx="289.6" cy="222.6" r="0.3"/>
	<circle class="st11" cx="292" cy="222.6" r="0.3"/>
	<circle class="st11" cx="294.4" cy="222.6" r="0.3"/>
	<circle class="st11" cx="296.8" cy="222.6" r="0.3"/>
	<circle class="st11" cx="299.2" cy="222.6" r="0.3"/>
	<circle class="st11" cx="284.8" cy="225.3" r="0.3"/>
	<circle class="st11" cx="287.2" cy="225.3" r="0.3"/>
	<circle class="st11" cx="289.6" cy="225.3" r="0.3"/>
	<circle class="st11" cx="292" cy="225.3" r="0.3"/>
	<circle class="st11" cx="294.4" cy="225.3" r="0.3"/>
</g>
<text transform="matrix(1 0 0 1 310 224.3335)" class="st11 st4 st10">thursday, 02 Oct, 2018</text>
<g class="st12">
	<path class="st13" d="M297.7,256.1c0.4,0,0.7-0.2,0.9-0.5l3.3-4.6c0.1-0.1,0.1-0.3,0-0.5c-0.1-0.1-0.3-0.1-0.5,0l-4.6,3.3
		c-0.3,0.2-0.5,0.6-0.5,0.9c0,0.4,0.1,0.7,0.4,1c0.2,0.2,0.6,0.4,0.9,0.4C297.6,256.1,297.6,256.1,297.7,256.1z M297,254.8
		c0-0.2,0.1-0.3,0.2-0.4l2.8-2l-2,2.8c-0.1,0.1-0.2,0.2-0.4,0.2c-0.2,0-0.3,0-0.4-0.2C297.1,255.1,297,255,297,254.8z"/>
	<path class="st13" d="M305.7,249.6C305.7,249.5,305.7,249.5,305.7,249.6C305.7,249.5,305.7,249.5,305.7,249.6
		c-0.4-0.7-0.8-1.2-1.3-1.8l0.8-0.8l0.5,0.5l1.5-1.5l-1.5-1.5l-1.5,1.5l0.5,0.5l-0.8,0.8c-0.5-0.5-1.1-0.9-1.7-1.3c0,0,0,0,0,0
		c0,0,0,0,0,0c-1.1-0.6-2.3-1.1-3.7-1.2v-0.4h0.5c0.5,0,0.9-0.4,0.9-0.9s-0.4-0.9-0.9-0.9h-3.2c-0.5,0-0.9,0.4-0.9,0.9
		s0.4,0.9,0.9,0.9h0.5v0.4c-0.4,0-0.8,0.1-1.2,0.2c-0.2,0-0.3,0.2-0.3,0.4c0,0.2,0.2,0.3,0.4,0.3c0.3-0.1,0.7-0.1,1-0.2l0.4,0
		c0.1,0,0.2,0,0.3,0v0.7c0,0.2,0.2,0.4,0.4,0.4s0.4-0.2,0.4-0.4v-0.7c1.3,0.1,2.6,0.4,3.7,1l-0.4,0.6c-0.1,0.2,0,0.4,0.1,0.5
		c0.1,0,0.1,0,0.2,0c0.1,0,0.2-0.1,0.3-0.2l0.4-0.6c1.1,0.7,2.1,1.7,2.8,2.8l-0.6,0.4c-0.2,0.1-0.2,0.3-0.1,0.5
		c0.1,0.1,0.2,0.2,0.3,0.2c0.1,0,0.1,0,0.2,0l0.6-0.4c0.6,1.1,1,2.4,1,3.8h-0.7c-0.2,0-0.4,0.2-0.4,0.4s0.2,0.4,0.4,0.4h0.7
		c-0.1,1.4-0.4,2.7-1,3.8l-0.6-0.4c-0.2-0.1-0.4,0-0.5,0.1c-0.1,0.2,0,0.4,0.1,0.5l0.6,0.4c-0.7,1.1-1.7,2.1-2.8,2.8l-0.4-0.6
		c-0.1-0.2-0.3-0.2-0.5-0.1c-0.2,0.1-0.2,0.3-0.1,0.5l0.4,0.6c-1.1,0.6-2.4,1-3.7,1v-0.7c0-0.2-0.2-0.4-0.4-0.4
		c-0.2,0-0.4,0.2-0.4,0.4v0.7c-0.6,0-1.1-0.1-1.7-0.2c-0.2,0-0.4,0.1-0.4,0.3c0,0.2,0.1,0.4,0.3,0.4c0.7,0.2,1.4,0.2,2.2,0.2
		c0,0,0,0,0.1,0c0,0,0,0,0,0c0,0,0,0,0,0c1.7,0,3.3-0.5,4.7-1.3c0,0,0,0,0,0c0,0,0,0,0,0c1.4-0.8,2.6-2,3.5-3.5c0,0,0,0,0,0
		c0,0,0,0,0,0c0.8-1.4,1.3-3.1,1.3-4.8C307,252.6,306.5,251,305.7,249.6z M305.7,245.5l0.5,0.5l-0.5,0.5l-0.5-0.5L305.7,245.5z
		 M297,244.7v-1.1h-1.3c-0.1,0-0.2-0.1-0.2-0.2s0.1-0.2,0.2-0.2h3.2c0.1,0,0.2,0.1,0.2,0.2s-0.1,0.2-0.2,0.2h-1.3v1.1
		c-0.1,0-0.2,0-0.4,0c0,0,0,0,0,0c0,0,0,0,0,0c-0.1,0-0.1,0-0.2,0C297.1,244.7,297.1,244.7,297,244.7z"/>
	<path class="st13" d="M294.2,247.6h-1.8c-0.2,0-0.4,0.2-0.4,0.4s0.2,0.4,0.4,0.4h1.8c0.2,0,0.4-0.2,0.4-0.4
		S294.4,247.6,294.2,247.6z"/>
	<path class="st13" d="M294.2,250.1h-3.6c-0.2,0-0.4,0.2-0.4,0.4c0,0.2,0.2,0.4,0.4,0.4h3.6c0.2,0,0.4-0.2,0.4-0.4
		C294.5,250.2,294.4,250.1,294.2,250.1z"/>
	<path class="st13" d="M294.2,252.6h-5.4c-0.2,0-0.4,0.2-0.4,0.4c0,0.2,0.2,0.4,0.4,0.4h5.4c0.2,0,0.4-0.2,0.4-0.4
		C294.5,252.7,294.4,252.6,294.2,252.6z"/>
	<path class="st13" d="M294.2,255.1h-6.8c-0.2,0-0.4,0.2-0.4,0.4c0,0.2,0.2,0.4,0.4,0.4h6.8c0.2,0,0.4-0.2,0.4-0.4
		C294.5,255.2,294.4,255.1,294.2,255.1z"/>
	<path class="st13" d="M294.2,257.6h-4.6c-0.2,0-0.4,0.2-0.4,0.4s0.2,0.4,0.4,0.4h4.6c0.2,0,0.4-0.2,0.4-0.4
		S294.4,257.6,294.2,257.6z"/>
	<path class="st13" d="M294.2,260.1h-2.5c-0.2,0-0.4,0.2-0.4,0.4c0,0.2,0.2,0.4,0.4,0.4h2.5c0.2,0,0.4-0.2,0.4-0.4
		C294.5,260.2,294.4,260.1,294.2,260.1z"/>
</g>
<path class="st11" d="M284.6,266h7v-7.6h-2.5v-2.5h2.5v-3.1c0-1.7,1.4-3.1,3.1-3.1h3.1v2.5h-2.5c-0.7,0-1.3,0.6-1.3,1.3v2.5h3.7
	l-0.4,2.5h-3.2v7.6h5.7c1.7,0,3.1-1.4,3.1-3.1v-15.2c0-1.7-1.4-3.1-3.1-3.1h-15.2c-1.7,0-3.1,1.4-3.1,3.1v15.2
	C281.5,264.6,282.9,266,284.6,266z M282.8,247.6c0-1,0.8-1.9,1.9-1.9h15.2c1,0,1.9,0.8,1.9,1.9v15.2c0,1-0.8,1.9-1.9,1.9h-4.4v-5.1
	h3.1l0.8-5h-3.9v-1.3h3.8v-5h-4.4c-2.4,0-4.4,2-4.4,4.4v1.9h-2.5v5h2.5v5.1h-5.8c-1,0-1.9-0.8-1.9-1.9V247.6z"/>
<g>
	<path class="st11" d="M310.9,244.9v21h21v-21H310.9z M330.2,264.2h-17.6v-17.6h17.6V264.2z"/>
	<path class="st11" d="M318.3,252c1.1,0,1.7,0.5,2.1,0.8l1.4-1.4c-0.9-0.9-2.1-1.4-3.6-1.4c-3,0-5.3,2.4-5.3,5.3
		c0,3,2.4,5.3,5.3,5.3c3,0,5.1-2.1,5.1-5.2c0-0.4,0-0.6-0.1-0.9h-5v1.8h3c-0.2,0.8-0.9,2.3-3,2.3c-1.8,0-3.3-1.5-3.3-3.3
		S316.5,252,318.3,252z"/>
	<path class="st11" d="M326.7,257.7h1.5v-1.5h1.5v-1.5h-1.5v-1.5h-1.5v1.5h-1.5v1.5h1.5V257.7z"/>
</g>
<g>
	<g id="post-twitter">
		<path class="st11" d="M358.9,245h-16.8c-1.2,0-2.1,0.9-2.1,2.1v16.8c0,1.2,0.9,2.1,2.1,2.1h16.8c1.2,0,2.1-0.9,2.1-2.1v-16.8
			C361,245.9,360.1,245,358.9,245z M356.5,252.7c-0.1,4.8-3.1,8.2-7.8,8.4c-1.9,0.1-3.3-0.5-4.5-1.3c1.4,0.2,3.1-0.3,4.1-1.2
			c-1.4-0.1-2.2-0.8-2.6-2c0.4,0.1,0.8,0,1.2,0c-1.3-0.4-2.1-1.2-2.2-2.8c0.3,0.2,0.7,0.3,1.2,0.3c-0.9-0.5-1.6-2.5-0.8-3.8
			c1.4,1.5,3,2.7,5.8,2.9c-0.7-2.9,3.3-4.5,4.8-2.5c0.7-0.1,1.3-0.4,1.8-0.6c-0.2,0.7-0.6,1.2-1.2,1.6c0.5-0.1,1-0.2,1.5-0.4
			C357.5,251.8,357,252.2,356.5,252.7z"/>
	</g>
</g>
<line class="st14" x1="287" y1="326" x2="1203" y2="326"/>
<rect x="31" y="155" class="st9" width="158" height="25"/>
<text transform="matrix(1 0 0 1 31 164.3149)"><tspan x="0" y="0" class="st4 st10">Lorem ipsum dolor </tspan><tspan x="0" y="14" class="st4 st10">sit amet, consec</tspan></text>
<rect x="31" y="305" class="st9" width="158" height="47"/>
<text transform="matrix(1 0 0 1 31 314.3149)"><tspan x="0" y="0" class="st11 st4 st10">Lorem ipsum dolor </tspan><tspan x="0" y="14" class="st11 st4 st10">sit amet, consec</tspan></text>
<rect x="31" y="205" class="st9" width="158" height="47"/>
<text transform="matrix(1 0 0 1 31 214.3149)"><tspan x="0" y="0" class="st11 st4 st10">Nisl ut aliquip ex </tspan><tspan x="0" y="14" class="st11 st4 st10">ea commodo</tspan></text>
<rect x="31" y="355" class="st9" width="158" height="47"/>
<text transform="matrix(1 0 0 1 31 364.3149)"><tspan x="0" y="0" class="st11 st4 st10">Nisl ut aliquip ex </tspan><tspan x="0" y="14" class="st11 st4 st10">ea commodo</tspan></text>
<rect x="31" y="255" class="st9" width="158" height="47"/>
<text transform="matrix(1 0 0 1 31 264.3149)"><tspan x="0" y="0" class="st11 st4 st10">vel illum dolore eu </tspan><tspan x="0" y="14" class="st11 st4 st10">feugiat</tspan></text>
<rect x="31" y="405" class="st9" width="158" height="47"/>
<text transform="matrix(1 0 0 1 31 414.3149)"><tspan x="0" y="0" class="st11 st4 st10">vel illum dolore eu </tspan><tspan x="0" y="14" class="st11 st4 st10">feugiat</tspan></text>
<rect x="31" y="455" class="st9" width="158" height="47"/>
<text transform="matrix(1 0 0 1 31 464.3149)"><tspan x="0" y="0" class="st11 st4 st10">Lorem ipsum dolor </tspan><tspan x="0" y="14" class="st11 st4 st10">sit amet, consec</tspan></text>
<rect x="31" y="505" class="st9" width="158" height="47"/>
<text transform="matrix(1 0 0 1 31 514.3149)"><tspan x="0" y="0" class="st11 st4 st10">Nisl ut aliquip ex </tspan><tspan x="0" y="14" class="st11 st4 st10">ea commodo</tspan></text>
<rect x="31" y="555" class="st9" width="158" height="47"/>
<text transform="matrix(1 0 0 1 31 564.3149)"><tspan x="0" y="0" class="st11 st4 st10">vel illum dolore eu </tspan><tspan x="0" y="14" class="st11 st4 st10">feugiat</tspan></text>
<rect x="31" y="605" class="st9" width="158" height="47"/>
<text transform="matrix(1 0 0 1 31 614.3149)"><tspan x="0" y="0" class="st11 st4 st10">Lorem ipsum dolor </tspan><tspan x="0" y="14" class="st11 st4 st10">sit amet, consec</tspan></text>
<rect x="31" y="655" class="st9" width="158" height="47"/>
<text transform="matrix(1 0 0 1 31 664.3149)"><tspan x="0" y="0" class="st11 st4 st10">Nisl ut aliquip ex </tspan><tspan x="0" y="14" class="st11 st4 st10">ea commodo</tspan></text>
<rect x="31" y="705" class="st9" width="158" height="47"/>
<text transform="matrix(1 0 0 1 31 714.3149)"><tspan x="0" y="0" class="st11 st4 st10">vel illum dolore eu </tspan><tspan x="0" y="14" class="st11 st4 st10">feugiat</tspan></text>
<rect x="31" y="755" class="st9" width="158" height="47"/>
<text transform="matrix(1 0 0 1 31 764.3149)"><tspan x="0" y="0" class="st11 st4 st10">Lorem ipsum dolor </tspan><tspan x="0" y="14" class="st11 st4 st10">sit amet, consec</tspan></text>
<rect x="31" y="805" class="st9" width="158" height="47"/>
<text transform="matrix(1 0 0 1 31 814.3149)"><tspan x="0" y="0" class="st11 st4 st10">Nisl ut aliquip ex </tspan><tspan x="0" y="14" class="st11 st4 st10">ea commodo</tspan></text>
<rect x="31" y="855" class="st9" width="158" height="47"/>
<text transform="matrix(1 0 0 1 31 864.3149)"><tspan x="0" y="0" class="st11 st4 st10">vel illum dolore eu </tspan><tspan x="0" y="14" class="st11 st4 st10">feugiat</tspan></text>
<rect x="30" y="974" class="st9" width="159" height="23"/>
<text transform="matrix(1 0 0 1 30 981.3188)"><tspan x="0" y="0" class="st11 st4 st15">all icons powered by </tspan><tspan x="0" y="14" class="st11 st4 st15">freepik from </tspan><tspan x="78.6" y="14" class="st11 st4 st15" style="text-decoration: underline;">flaticon.com</tspan></text>
<g>
	<path d="M49.7,910.4H31.3c-0.2,0-0.3-0.1-0.3-0.3s0.1-0.3,0.3-0.3h18.4c0.2,0,0.3,0.1,0.3,0.3S49.9,910.4,49.7,910.4z"/>
	<path d="M38.6,917.7c-0.1,0-0.1,0-0.2-0.1l-7.3-7.3c-0.1-0.1-0.1-0.1-0.1-0.2s0-0.2,0.1-0.2l7.3-7.3c0.1-0.1,0.3-0.1,0.4,0
		s0.1,0.3,0,0.4l-7.1,7.1l7.1,7.1c0.1,0.1,0.1,0.3,0,0.4C38.7,917.7,38.7,917.7,38.6,917.7z"/>
</g>
<g>
	<path d="M170.3,909.8h18.4c0.2,0,0.3,0.1,0.3,0.3s-0.1,0.3-0.3,0.3h-18.4c-0.2,0-0.3-0.1-0.3-0.3S170.1,909.8,170.3,909.8z"/>
	<path d="M181.4,902.5c0.1,0,0.1,0,0.2,0.1l7.3,7.3c0.1,0.1,0.1,0.1,0.1,0.2s0,0.2-0.1,0.2l-7.3,7.3c-0.1,0.1-0.3,0.1-0.4,0
		s-0.1-0.3,0-0.4l7.1-7.1l-7.1-7.1c-0.1-0.1-0.1-0.3,0-0.4C181.3,902.6,181.3,902.5,181.4,902.5z"/>
</g>
<text transform="matrix(1 0 0 1 106.1499 914.5534)" class="st4 st10">1</text>
</svg>
